<?xml version="1.0" encoding="UTF-8" standalone="no"?>
<!DOCTYPE svg PUBLIC "-//W3C//DTD SVG 1.1//EN"
 "http://www.w3.org/Graphics/SVG/1.1/DTD/svg11.dtd">
<!-- Generated by graphviz version 2.43.0 (0)
 -->
<!-- Title: G Pages: 1 -->
<svg width="186pt" height="107pt"
 viewBox="0.00 0.00 186.00 107.40" xmlns="http://www.w3.org/2000/svg" xmlns:xlink="http://www.w3.org/1999/xlink">
<g id="graph0" class="graph" transform="scale(1 1) rotate(0) translate(4 103.4)">
<title>G</title>
<polygon fill="#f5f5f5" stroke="transparent" points="-4,4 -4,-103.4 182,-103.4 182,4 -4,4"/>
<text text-anchor="middle" x="89" y="-84.2" font-family="Times,serif" font-size="14.00">Activos rentados U1</text>
<!-- n1 -->
<g id="node1" class="node">
<title>n1</title>
<polygon fill="#004488" stroke="transparent" points="71,-57.2 0,-57.2 0,-19.2 71,-19.2 71,-57.2"/>
<text text-anchor="middle" x="35.5" y="-49.2" font-family="Times,serif" font-size="5.00" fill="#f5f5f5">id = pd9gd5f50ks4hzg</text>
<text text-anchor="middle" x="35.5" y="-43.2" font-family="Times,serif" font-size="5.00" fill="#f5f5f5">Tipo = Renta</text>
<text text-anchor="middle" x="35.5" y="-37.2" font-family="Times,serif" font-size="5.00" fill="#f5f5f5">Usuario = U1</text>
<text text-anchor="middle" x="35.5" y="-31.2" font-family="Times,serif" font-size="5.00" fill="#f5f5f5">Activo = A12</text>
<text text-anchor="middle" x="35.5" y="-25.2" font-family="Times,serif" font-size="5.00" fill="#f5f5f5">Tiempo renta = 1</text>
</g>
<!-- n2 -->
<g id="node2" class="node">
<title>n2</title>
<polygon fill="#004488" stroke="transparent" points="178,-57.2 107,-57.2 107,-19.2 178,-19.2 178,-57.2"/>
<text text-anchor="middle" x="142.5" y="-49.2" font-family="Times,serif" font-size="5.00" fill="#f5f5f5">id = svt887a33v24sn4</text>
<text text-anchor="middle" x="142.5" y="-43.2" font-family="Times,serif" font-size="5.00" fill="#f5f5f5">Tipo = Renta</text>
<text text-anchor="middle" x="142.5" y="-37.2" font-family="Times,serif" font-size="5.00" fill="#f5f5f5">Usuario = U1</text>
<text text-anchor="middle" x="142.5" y="-31.2" font-family="Times,serif" font-size="5.00" fill="#f5f5f5">Activo = A33</text>
<text text-anchor="middle" x="142.5" y="-25.2" font-family="Times,serif" font-size="5.00" fill="#f5f5f5">Tiempo renta = 2</text>
</g>
<!-- n1&#45;&gt;n2 -->
<g id="edge1" class="edge">
<title>n1&#45;&gt;n2</title>
<path fill="none" stroke="#ff5722" d="M71.17,-38.2C79.33,-38.2 88.13,-38.2 96.66,-38.2"/>
<polygon fill="#ff5722" stroke="#ff5722" points="96.86,-41.7 106.86,-38.2 96.86,-34.7 96.86,-41.7"/>
</g>
<!-- n1&#45;&gt;n2 -->
<g id="edge4" class="edge">
<title>n1:s&#45;&gt;n2:s</title>
<path fill="none" stroke="#ff5722" d="M35.5,-18.2C35.5,2.33 115.24,5.13 137.05,-9.78"/>
<polygon fill="#ff5722" stroke="#ff5722" points="134.13,-11.71 142.5,-18.2 140,-7.91 134.13,-11.71"/>
</g>
<!-- n2&#45;&gt;n1 -->
<g id="edge2" class="edge">
<title>n2&#45;&gt;n1</title>
<path fill="none" stroke="#ff5722" d="M106.86,-38.2C98.71,-38.2 89.91,-38.2 81.38,-38.2"/>
<polygon fill="#ff5722" stroke="#ff5722" points="81.17,-34.7 71.17,-38.2 81.17,-41.7 81.17,-34.7"/>
</g>
<!-- n2&#45;&gt;n1 -->
<g id="edge3" class="edge">
<title>n2:n&#45;&gt;n1:n</title>
<path fill="none" stroke="#ff5722" d="M142.5,-58.2C142.5,-78.73 62.76,-81.53 40.95,-66.62"/>
<polygon fill="#ff5722" stroke="#ff5722" points="43.87,-64.69 35.5,-58.2 38,-68.5 43.87,-64.69"/>
</g>
</g>
</svg>
