<?xml version="1.0" encoding="UTF-8" standalone="no"?>
<!DOCTYPE svg PUBLIC "-//W3C//DTD SVG 1.1//EN"
 "http://www.w3.org/Graphics/SVG/1.1/DTD/svg11.dtd">
<!-- Generated by graphviz version 2.43.0 (0)
 -->
<!-- Title: G Pages: 1 -->
<svg width="169pt" height="117pt"
 viewBox="0.00 0.00 169.00 117.00" xmlns="http://www.w3.org/2000/svg" xmlns:xlink="http://www.w3.org/1999/xlink">
<g id="graph0" class="graph" transform="scale(1 1) rotate(0) translate(4 113)">
<title>G</title>
<polygon fill="#f5f5f5" stroke="transparent" points="-4,4 -4,-113 165,-113 165,4 -4,4"/>
<text text-anchor="middle" x="80.5" y="-93.8" font-family="Times,serif" font-size="14.00">Activos rentados U4</text>
<!-- n1 -->
<g id="node1" class="node">
<title>n1</title>
<polygon fill="#004488" stroke="transparent" points="117,-65 44,-65 44,-21 117,-21 117,-65"/>
<text text-anchor="middle" x="80.5" y="-57" font-family="Times,serif" font-size="5.00" fill="#f5f5f5">id = frod45a6617mv0d</text>
<text text-anchor="middle" x="80.5" y="-51" font-family="Times,serif" font-size="5.00" fill="#f5f5f5">Tipo = Renta</text>
<text text-anchor="middle" x="80.5" y="-45" font-family="Times,serif" font-size="5.00" fill="#f5f5f5">Usuario = U4</text>
<text text-anchor="middle" x="80.5" y="-39" font-family="Times,serif" font-size="5.00" fill="#f5f5f5">Activo = A11</text>
<text text-anchor="middle" x="80.5" y="-33" font-family="Times,serif" font-size="5.00" fill="#f5f5f5">Tiempo renta = 1</text>
<text text-anchor="middle" x="80.5" y="-27" font-family="Times,serif" font-size="5.00" fill="#f5f5f5">Fecha = 16/12/2024</text>
</g>
<!-- n1&#45;&gt;n1 -->
<g id="edge1" class="edge">
<title>n1:n&#45;&gt;n1:n</title>
<path fill="none" stroke="#ff5722" d="M80.5,-65C98.5,-72 98.5,-86 80.5,-86 66.16,-86 63.24,-77.11 71.76,-69.96"/>
<polygon fill="#ff5722" stroke="#ff5722" points="73.53,-72.98 80.5,-65 70.07,-66.89 73.53,-72.98"/>
</g>
<!-- n1&#45;&gt;n1 -->
<g id="edge2" class="edge">
<title>n1:s&#45;&gt;n1:s</title>
<path fill="none" stroke="#ff5722" d="M80.5,-21C98.5,-14 98.5,0 80.5,0 66.16,0 63.24,-8.89 71.76,-16.04"/>
<polygon fill="#ff5722" stroke="#ff5722" points="70.07,-19.11 80.5,-21 73.53,-13.02 70.07,-19.11"/>
</g>
</g>
</svg>
