<?xml version="1.0" encoding="UTF-8" standalone="no"?>
<!DOCTYPE svg PUBLIC "-//W3C//DTD SVG 1.1//EN"
 "http://www.w3.org/Graphics/SVG/1.1/DTD/svg11.dtd">
<!-- Generated by graphviz version 2.43.0 (0)
 -->
<!-- Title: G Pages: 1 -->
<svg width="295pt" height="141pt"
 viewBox="0.00 0.00 295.00 141.09" xmlns="http://www.w3.org/2000/svg" xmlns:xlink="http://www.w3.org/1999/xlink">
<g id="graph0" class="graph" transform="scale(1 1) rotate(0) translate(4 137.09)">
<title>G</title>
<polygon fill="#f5f5f5" stroke="transparent" points="-4,4 -4,-137.09 291,-137.09 291,4 -4,4"/>
<text text-anchor="middle" x="143.5" y="-117.89" font-family="Times,serif" font-size="14.00">Activos rentados U1</text>
<!-- n1 -->
<g id="node1" class="node">
<title>n1</title>
<polygon fill="#004488" stroke="transparent" points="71,-74.05 0,-74.05 0,-36.05 71,-36.05 71,-74.05"/>
<text text-anchor="middle" x="35.5" y="-66.05" font-family="Times,serif" font-size="5.00" fill="#f5f5f5">id = b12ebn604b7rir9</text>
<text text-anchor="middle" x="35.5" y="-60.05" font-family="Times,serif" font-size="5.00" fill="#f5f5f5">Tipo = Renta</text>
<text text-anchor="middle" x="35.5" y="-54.05" font-family="Times,serif" font-size="5.00" fill="#f5f5f5">Usuario = U1</text>
<text text-anchor="middle" x="35.5" y="-48.05" font-family="Times,serif" font-size="5.00" fill="#f5f5f5">Activo = A13</text>
<text text-anchor="middle" x="35.5" y="-42.05" font-family="Times,serif" font-size="5.00" fill="#f5f5f5">Tiempo renta = 1</text>
</g>
<!-- n2 -->
<g id="node2" class="node">
<title>n2</title>
<polygon fill="#004488" stroke="transparent" points="178,-74.05 107,-74.05 107,-36.05 178,-36.05 178,-74.05"/>
<text text-anchor="middle" x="142.5" y="-66.05" font-family="Times,serif" font-size="5.00" fill="#f5f5f5">id = mjf6r66m1989a6i</text>
<text text-anchor="middle" x="142.5" y="-60.05" font-family="Times,serif" font-size="5.00" fill="#f5f5f5">Tipo = Renta</text>
<text text-anchor="middle" x="142.5" y="-54.05" font-family="Times,serif" font-size="5.00" fill="#f5f5f5">Usuario = U1</text>
<text text-anchor="middle" x="142.5" y="-48.05" font-family="Times,serif" font-size="5.00" fill="#f5f5f5">Activo = A23</text>
<text text-anchor="middle" x="142.5" y="-42.05" font-family="Times,serif" font-size="5.00" fill="#f5f5f5">Tiempo renta = 2</text>
</g>
<!-- n1&#45;&gt;n2 -->
<g id="edge1" class="edge">
<title>n1&#45;&gt;n2</title>
<path fill="none" stroke="#ff5722" d="M71.03,-42.4C79.59,-40.87 88.15,-40.43 96.71,-41.09"/>
<polygon fill="#ff5722" stroke="#ff5722" points="96.4,-44.58 106.76,-42.37 97.28,-37.64 96.4,-44.58"/>
</g>
<!-- n3 -->
<g id="node3" class="node">
<title>n3</title>
<polygon fill="#004488" stroke="transparent" points="287,-74.05 214,-74.05 214,-36.05 287,-36.05 287,-74.05"/>
<text text-anchor="middle" x="250.5" y="-66.05" font-family="Times,serif" font-size="5.00" fill="#f5f5f5">id = 87m11g75788f6sc</text>
<text text-anchor="middle" x="250.5" y="-60.05" font-family="Times,serif" font-size="5.00" fill="#f5f5f5">Tipo = Renta</text>
<text text-anchor="middle" x="250.5" y="-54.05" font-family="Times,serif" font-size="5.00" fill="#f5f5f5">Usuario = U1</text>
<text text-anchor="middle" x="250.5" y="-48.05" font-family="Times,serif" font-size="5.00" fill="#f5f5f5">Activo = A33</text>
<text text-anchor="middle" x="250.5" y="-42.05" font-family="Times,serif" font-size="5.00" fill="#f5f5f5">Tiempo renta = 3</text>
</g>
<!-- n1&#45;&gt;n3 -->
<g id="edge6" class="edge">
<title>n1:s&#45;&gt;n3:s</title>
<path fill="none" stroke="#ff5722" d="M35.5,-36.05C35.5,8.19 219.77,11.47 247.12,-26.2"/>
<polygon fill="#ff5722" stroke="#ff5722" points="243.95,-27.72 250.5,-36.05 250.57,-25.45 243.95,-27.72"/>
</g>
<!-- n2&#45;&gt;n1 -->
<g id="edge3" class="edge">
<title>n2&#45;&gt;n1</title>
<path fill="none" stroke="#ff5722" d="M106.76,-67.73C98.2,-69.24 89.64,-69.66 81.08,-68.98"/>
<polygon fill="#ff5722" stroke="#ff5722" points="81.39,-65.5 71.03,-67.69 80.5,-72.44 81.39,-65.5"/>
</g>
<!-- n2&#45;&gt;n3 -->
<g id="edge2" class="edge">
<title>n2&#45;&gt;n3</title>
<path fill="none" stroke="#ff5722" d="M178.36,-42.4C186.87,-40.9 195.37,-40.45 203.88,-41.06"/>
<polygon fill="#ff5722" stroke="#ff5722" points="203.52,-44.54 213.87,-42.27 204.36,-37.59 203.52,-44.54"/>
</g>
<!-- n3&#45;&gt;n1 -->
<g id="edge5" class="edge">
<title>n3:n&#45;&gt;n1:n</title>
<path fill="none" stroke="#ff5722" d="M250.5,-74.05C250.5,-118.28 66.23,-121.56 38.88,-83.89"/>
<polygon fill="#ff5722" stroke="#ff5722" points="42.05,-82.37 35.5,-74.05 35.43,-84.64 42.05,-82.37"/>
</g>
<!-- n3&#45;&gt;n2 -->
<g id="edge4" class="edge">
<title>n3&#45;&gt;n2</title>
<path fill="none" stroke="#ff5722" d="M213.87,-67.82C205.36,-69.27 196.85,-69.65 188.35,-68.97"/>
<polygon fill="#ff5722" stroke="#ff5722" points="188.72,-65.49 178.36,-67.69 187.83,-72.43 188.72,-65.49"/>
</g>
</g>
</svg>
