<?xml version="1.0" encoding="UTF-8" standalone="no"?>
<!DOCTYPE svg PUBLIC "-//W3C//DTD SVG 1.1//EN"
 "http://www.w3.org/Graphics/SVG/1.1/DTD/svg11.dtd">
<!-- Generated by graphviz version 2.43.0 (0)
 -->
<!-- Title: G Pages: 1 -->
<svg width="523pt" height="283pt"
 viewBox="0.00 0.00 523.00 283.00" xmlns="http://www.w3.org/2000/svg" xmlns:xlink="http://www.w3.org/1999/xlink">
<g id="graph0" class="graph" transform="scale(1 1) rotate(0) translate(4 279)">
<title>G</title>
<polygon fill="#f5f5f5" stroke="transparent" points="-4,4 -4,-279 519,-279 519,4 -4,4"/>
<text text-anchor="middle" x="257.5" y="-259.8" font-family="Times,serif" font-size="14.00">Matriz Dispersa</text>
<!-- n0 -->
<g id="node1" class="node">
<title>n0</title>
<polygon fill="#004488" stroke="transparent" points="119,-252 0,-252 0,-216 119,-216 119,-252"/>
<text text-anchor="middle" x="59.5" y="-230.3" font-family="Times,serif" font-size="14.00" fill="#f5f5f5">Administrador</text>
</g>
<!-- n2 -->
<g id="node2" class="node">
<title>n2</title>
<polygon fill="#004488" stroke="transparent" points="249.5,-252 155.5,-252 155.5,-216 249.5,-216 249.5,-252"/>
<text text-anchor="middle" x="202.5" y="-230.3" font-family="Times,serif" font-size="14.00" fill="#f5f5f5">Guatemala</text>
</g>
<!-- n0&#45;&gt;n2 -->
<g id="edge3" class="edge">
<title>n0&#45;&gt;n2</title>
<path fill="none" stroke="#ff5722" d="M119.27,-247.14C127.92,-247.67 136.56,-247.62 145.21,-246.97"/>
<polygon fill="#ff5722" stroke="#ff5722" points="145.76,-250.43 155.36,-245.93 145.05,-243.46 145.76,-250.43"/>
</g>
<!-- n3 -->
<g id="node5" class="node">
<title>n3</title>
<polygon fill="#004488" stroke="transparent" points="102.5,-180 16.5,-180 16.5,-144 102.5,-144 102.5,-180"/>
<text text-anchor="middle" x="59.5" y="-158.3" font-family="Times,serif" font-size="14.00" fill="#f5f5f5">Max</text>
</g>
<!-- n0&#45;&gt;n3 -->
<g id="edge4" class="edge">
<title>n0&#45;&gt;n3</title>
<path fill="none" stroke="#ff5722" d="M47.67,-215.7C46.08,-207.98 45.62,-198.71 46.31,-190.11"/>
<polygon fill="#ff5722" stroke="#ff5722" points="49.79,-190.49 47.71,-180.1 42.86,-189.52 49.79,-190.49"/>
</g>
<!-- n2&#45;&gt;n0 -->
<g id="edge1" class="edge">
<title>n2&#45;&gt;n0</title>
<path fill="none" stroke="#ff5722" d="M155.36,-222.07C146.71,-220.95 138.07,-220.43 129.42,-220.51"/>
<polygon fill="#ff5722" stroke="#ff5722" points="129.14,-217.01 119.27,-220.86 129.39,-224.01 129.14,-217.01"/>
</g>
<!-- n5 -->
<g id="node3" class="node">
<title>n5</title>
<polygon fill="#004488" stroke="transparent" points="371.5,-252 285.5,-252 285.5,-216 371.5,-216 371.5,-252"/>
<text text-anchor="middle" x="328.5" y="-230.3" font-family="Times,serif" font-size="14.00" fill="#f5f5f5">Xela</text>
</g>
<!-- n2&#45;&gt;n5 -->
<g id="edge5" class="edge">
<title>n2&#45;&gt;n5</title>
<path fill="none" stroke="#ff5722" d="M249.75,-221.34C258.3,-220.43 266.85,-220.26 275.4,-220.83"/>
<polygon fill="#ff5722" stroke="#ff5722" points="275.13,-224.32 285.43,-221.85 275.84,-217.36 275.13,-224.32"/>
</g>
<!-- n1 -->
<g id="node6" class="node">
<title>n1</title>
<polygon fill="#004488" stroke="transparent" points="245.5,-180 159.5,-180 159.5,-144 245.5,-144 245.5,-180"/>
<text text-anchor="middle" x="202.5" y="-158.3" font-family="Times,serif" font-size="14.00" fill="#f5f5f5">U1</text>
</g>
<!-- n2&#45;&gt;n1 -->
<g id="edge6" class="edge">
<title>n2&#45;&gt;n1</title>
<path fill="none" stroke="#ff5722" d="M190.67,-215.7C189.08,-207.98 188.62,-198.71 189.31,-190.11"/>
<polygon fill="#ff5722" stroke="#ff5722" points="192.79,-190.49 190.71,-180.1 185.86,-189.52 192.79,-190.49"/>
</g>
<!-- n5&#45;&gt;n2 -->
<g id="edge7" class="edge">
<title>n5&#45;&gt;n2</title>
<path fill="none" stroke="#ff5722" d="M285.43,-246.15C276.88,-247.31 268.34,-247.72 259.79,-247.39"/>
<polygon fill="#ff5722" stroke="#ff5722" points="259.98,-243.89 249.75,-246.66 259.47,-250.88 259.98,-243.89"/>
</g>
<!-- n7 -->
<g id="node4" class="node">
<title>n7</title>
<polygon fill="#004488" stroke="transparent" points="515,-252 408,-252 408,-216 515,-216 515,-252"/>
<text text-anchor="middle" x="461.5" y="-230.3" font-family="Times,serif" font-size="14.00" fill="#f5f5f5">Alta Verapaz</text>
</g>
<!-- n5&#45;&gt;n7 -->
<g id="edge8" class="edge">
<title>n5&#45;&gt;n7</title>
<path fill="none" stroke="#ff5722" d="M371.62,-222.17C380.28,-220.93 388.95,-220.38 397.61,-220.52"/>
<polygon fill="#ff5722" stroke="#ff5722" points="397.63,-224.03 407.78,-221 397.96,-217.03 397.63,-224.03"/>
</g>
<!-- n4 -->
<g id="node7" class="node">
<title>n4</title>
<polygon fill="#004488" stroke="transparent" points="371.5,-180 285.5,-180 285.5,-144 371.5,-144 371.5,-180"/>
<text text-anchor="middle" x="328.5" y="-158.3" font-family="Times,serif" font-size="14.00" fill="#f5f5f5">U2</text>
</g>
<!-- n5&#45;&gt;n4 -->
<g id="edge9" class="edge">
<title>n5&#45;&gt;n4</title>
<path fill="none" stroke="#ff5722" d="M316.67,-215.7C315.08,-207.98 314.62,-198.71 315.31,-190.11"/>
<polygon fill="#ff5722" stroke="#ff5722" points="318.79,-190.49 316.71,-180.1 311.86,-189.52 318.79,-190.49"/>
</g>
<!-- n7&#45;&gt;n5 -->
<g id="edge10" class="edge">
<title>n7&#45;&gt;n5</title>
<path fill="none" stroke="#ff5722" d="M407.78,-247C399.12,-247.68 390.46,-247.67 381.79,-246.97"/>
<polygon fill="#ff5722" stroke="#ff5722" points="381.95,-243.46 371.62,-245.83 381.17,-250.42 381.95,-243.46"/>
</g>
<!-- n10 -->
<g id="node8" class="node">
<title>n10</title>
<polygon fill="#004488" stroke="transparent" points="504.5,-180 418.5,-180 418.5,-144 504.5,-144 504.5,-180"/>
<text text-anchor="middle" x="461.5" y="-158.3" font-family="Times,serif" font-size="14.00" fill="#f5f5f5">U3</text>
</g>
<!-- n7&#45;&gt;n10 -->
<g id="edge11" class="edge">
<title>n7&#45;&gt;n10</title>
<path fill="none" stroke="#ff5722" d="M449.67,-215.7C448.08,-207.98 447.62,-198.71 448.31,-190.11"/>
<polygon fill="#ff5722" stroke="#ff5722" points="451.79,-190.49 449.71,-180.1 444.86,-189.52 451.79,-190.49"/>
</g>
<!-- n3&#45;&gt;n0 -->
<g id="edge2" class="edge">
<title>n3&#45;&gt;n0</title>
<path fill="none" stroke="#ff5722" d="M71.29,-180.1C72.9,-187.79 73.37,-197.05 72.71,-205.67"/>
<polygon fill="#ff5722" stroke="#ff5722" points="69.22,-205.31 71.33,-215.7 76.16,-206.27 69.22,-205.31"/>
</g>
<!-- n3&#45;&gt;n1 -->
<g id="edge12" class="edge">
<title>n3&#45;&gt;n1</title>
<path fill="none" stroke="#ff5722" d="M102.51,-150.64C118,-148.31 133.48,-147.88 148.97,-149.35"/>
<polygon fill="#ff5722" stroke="#ff5722" points="148.8,-152.86 159.15,-150.59 149.64,-145.91 148.8,-152.86"/>
</g>
<!-- n8 -->
<g id="node9" class="node">
<title>n8</title>
<polygon fill="#004488" stroke="transparent" points="102.5,-108 16.5,-108 16.5,-72 102.5,-72 102.5,-108"/>
<text text-anchor="middle" x="59.5" y="-86.3" font-family="Times,serif" font-size="14.00" fill="#f5f5f5">Cemaco</text>
</g>
<!-- n3&#45;&gt;n8 -->
<g id="edge13" class="edge">
<title>n3&#45;&gt;n8</title>
<path fill="none" stroke="#ff5722" d="M47.67,-143.7C46.08,-135.98 45.62,-126.71 46.31,-118.11"/>
<polygon fill="#ff5722" stroke="#ff5722" points="49.79,-118.49 47.71,-108.1 42.86,-117.52 49.79,-118.49"/>
</g>
<!-- n1&#45;&gt;n2 -->
<g id="edge16" class="edge">
<title>n1&#45;&gt;n2</title>
<path fill="none" stroke="#ff5722" d="M214.29,-180.1C215.9,-187.79 216.37,-197.05 215.71,-205.67"/>
<polygon fill="#ff5722" stroke="#ff5722" points="212.22,-205.31 214.33,-215.7 219.16,-206.27 212.22,-205.31"/>
</g>
<!-- n1&#45;&gt;n3 -->
<g id="edge14" class="edge">
<title>n1&#45;&gt;n3</title>
<path fill="none" stroke="#ff5722" d="M159.15,-173.41C143.66,-175.71 128.17,-176.11 112.69,-174.61"/>
<polygon fill="#ff5722" stroke="#ff5722" points="112.87,-171.11 102.51,-173.36 112.01,-178.06 112.87,-171.11"/>
</g>
<!-- n1&#45;&gt;n4 -->
<g id="edge15" class="edge">
<title>n1&#45;&gt;n4</title>
<path fill="none" stroke="#ff5722" d="M245.81,-149.82C255.56,-148.51 265.31,-148.18 275.06,-148.81"/>
<polygon fill="#ff5722" stroke="#ff5722" points="274.92,-152.31 285.22,-149.82 275.61,-145.35 274.92,-152.31"/>
</g>
<!-- n9 -->
<g id="node10" class="node">
<title>n9</title>
<polygon fill="#004488" stroke="transparent" points="245.5,-108 159.5,-108 159.5,-72 245.5,-72 245.5,-108"/>
<text text-anchor="middle" x="202.5" y="-86.3" font-family="Times,serif" font-size="14.00" fill="#f5f5f5">U4</text>
</g>
<!-- n1&#45;&gt;n9 -->
<g id="edge17" class="edge">
<title>n1&#45;&gt;n9</title>
<path fill="none" stroke="#ff5722" d="M190.67,-143.7C189.08,-135.98 188.62,-126.71 189.31,-118.11"/>
<polygon fill="#ff5722" stroke="#ff5722" points="192.79,-118.49 190.71,-108.1 185.86,-117.52 192.79,-118.49"/>
</g>
<!-- n4&#45;&gt;n5 -->
<g id="edge20" class="edge">
<title>n4&#45;&gt;n5</title>
<path fill="none" stroke="#ff5722" d="M340.29,-180.1C341.9,-187.79 342.37,-197.05 341.71,-205.67"/>
<polygon fill="#ff5722" stroke="#ff5722" points="338.22,-205.31 340.33,-215.7 345.16,-206.27 338.22,-205.31"/>
</g>
<!-- n4&#45;&gt;n1 -->
<g id="edge18" class="edge">
<title>n4&#45;&gt;n1</title>
<path fill="none" stroke="#ff5722" d="M285.22,-174.18C275.47,-175.49 265.72,-175.82 255.97,-175.19"/>
<polygon fill="#ff5722" stroke="#ff5722" points="256.11,-171.69 245.81,-174.18 255.42,-178.65 256.11,-171.69"/>
</g>
<!-- n4&#45;&gt;n10 -->
<g id="edge19" class="edge">
<title>n4&#45;&gt;n10</title>
<path fill="none" stroke="#ff5722" d="M371.62,-150.17C383.78,-148.43 395.94,-148.05 408.1,-149.02"/>
<polygon fill="#ff5722" stroke="#ff5722" points="407.99,-152.53 418.32,-150.16 408.76,-145.58 407.99,-152.53"/>
</g>
<!-- n13 -->
<g id="node11" class="node">
<title>n13</title>
<polygon fill="#004488" stroke="transparent" points="371.5,-108 285.5,-108 285.5,-72 371.5,-72 371.5,-108"/>
<text text-anchor="middle" x="328.5" y="-86.3" font-family="Times,serif" font-size="14.00" fill="#f5f5f5">U5</text>
</g>
<!-- n4&#45;&gt;n13 -->
<g id="edge21" class="edge">
<title>n4&#45;&gt;n13</title>
<path fill="none" stroke="#ff5722" d="M316.67,-143.7C315.08,-135.98 314.62,-126.71 315.31,-118.11"/>
<polygon fill="#ff5722" stroke="#ff5722" points="318.79,-118.49 316.71,-108.1 311.86,-117.52 318.79,-118.49"/>
</g>
<!-- n10&#45;&gt;n7 -->
<g id="edge23" class="edge">
<title>n10&#45;&gt;n7</title>
<path fill="none" stroke="#ff5722" d="M473.29,-180.1C474.9,-187.79 475.37,-197.05 474.71,-205.67"/>
<polygon fill="#ff5722" stroke="#ff5722" points="471.22,-205.31 473.33,-215.7 478.16,-206.27 471.22,-205.31"/>
</g>
<!-- n10&#45;&gt;n4 -->
<g id="edge22" class="edge">
<title>n10&#45;&gt;n4</title>
<path fill="none" stroke="#ff5722" d="M418.32,-173.84C406.16,-175.57 394,-175.95 381.84,-174.97"/>
<polygon fill="#ff5722" stroke="#ff5722" points="381.95,-171.46 371.62,-173.83 381.17,-178.42 381.95,-171.46"/>
</g>
<!-- n6 -->
<g id="node12" class="node">
<title>n6</title>
<polygon fill="#004488" stroke="transparent" points="504.5,-108 418.5,-108 418.5,-72 504.5,-72 504.5,-108"/>
<text text-anchor="middle" x="461.5" y="-86.3" font-family="Times,serif" font-size="14.00" fill="#f5f5f5">U6</text>
</g>
<!-- n10&#45;&gt;n6 -->
<g id="edge24" class="edge">
<title>n10&#45;&gt;n6</title>
<path fill="none" stroke="#ff5722" d="M449.67,-143.7C448.08,-135.98 447.62,-126.71 448.31,-118.11"/>
<polygon fill="#ff5722" stroke="#ff5722" points="451.79,-118.49 449.71,-108.1 444.86,-117.52 451.79,-118.49"/>
</g>
<!-- n8&#45;&gt;n3 -->
<g id="edge26" class="edge">
<title>n8&#45;&gt;n3</title>
<path fill="none" stroke="#ff5722" d="M71.29,-108.1C72.9,-115.79 73.37,-125.05 72.71,-133.67"/>
<polygon fill="#ff5722" stroke="#ff5722" points="69.22,-133.31 71.33,-143.7 76.16,-134.27 69.22,-133.31"/>
</g>
<!-- n8&#45;&gt;n9 -->
<g id="edge25" class="edge">
<title>n8&#45;&gt;n9</title>
<path fill="none" stroke="#ff5722" d="M102.51,-78.64C118,-76.31 133.48,-75.88 148.97,-77.35"/>
<polygon fill="#ff5722" stroke="#ff5722" points="148.8,-80.86 159.15,-78.59 149.64,-73.91 148.8,-80.86"/>
</g>
<!-- n12 -->
<g id="node13" class="node">
<title>n12</title>
<polygon fill="#004488" stroke="transparent" points="102.5,-36 16.5,-36 16.5,0 102.5,0 102.5,-36"/>
<text text-anchor="middle" x="59.5" y="-14.3" font-family="Times,serif" font-size="14.00" fill="#f5f5f5">Campero</text>
</g>
<!-- n8&#45;&gt;n12 -->
<g id="edge27" class="edge">
<title>n8&#45;&gt;n12</title>
<path fill="none" stroke="#ff5722" d="M47.67,-71.7C46.08,-63.98 45.62,-54.71 46.31,-46.11"/>
<polygon fill="#ff5722" stroke="#ff5722" points="49.79,-46.49 47.71,-36.1 42.86,-45.52 49.79,-46.49"/>
</g>
<!-- n9&#45;&gt;n1 -->
<g id="edge30" class="edge">
<title>n9&#45;&gt;n1</title>
<path fill="none" stroke="#ff5722" d="M214.29,-108.1C215.9,-115.79 216.37,-125.05 215.71,-133.67"/>
<polygon fill="#ff5722" stroke="#ff5722" points="212.22,-133.31 214.33,-143.7 219.16,-134.27 212.22,-133.31"/>
</g>
<!-- n9&#45;&gt;n8 -->
<g id="edge28" class="edge">
<title>n9&#45;&gt;n8</title>
<path fill="none" stroke="#ff5722" d="M159.15,-101.41C143.66,-103.71 128.17,-104.11 112.69,-102.61"/>
<polygon fill="#ff5722" stroke="#ff5722" points="112.87,-99.11 102.51,-101.36 112.01,-106.06 112.87,-99.11"/>
</g>
<!-- n9&#45;&gt;n13 -->
<g id="edge29" class="edge">
<title>n9&#45;&gt;n13</title>
<path fill="none" stroke="#ff5722" d="M245.81,-77.82C255.56,-76.51 265.31,-76.18 275.06,-76.81"/>
<polygon fill="#ff5722" stroke="#ff5722" points="274.92,-80.31 285.22,-77.82 275.61,-73.35 274.92,-80.31"/>
</g>
<!-- n13&#45;&gt;n4 -->
<g id="edge33" class="edge">
<title>n13&#45;&gt;n4</title>
<path fill="none" stroke="#ff5722" d="M340.29,-108.1C341.9,-115.79 342.37,-125.05 341.71,-133.67"/>
<polygon fill="#ff5722" stroke="#ff5722" points="338.22,-133.31 340.33,-143.7 345.16,-134.27 338.22,-133.31"/>
</g>
<!-- n13&#45;&gt;n9 -->
<g id="edge31" class="edge">
<title>n13&#45;&gt;n9</title>
<path fill="none" stroke="#ff5722" d="M285.22,-102.18C275.47,-103.49 265.72,-103.82 255.97,-103.19"/>
<polygon fill="#ff5722" stroke="#ff5722" points="256.11,-99.69 245.81,-102.18 255.42,-106.65 256.11,-99.69"/>
</g>
<!-- n13&#45;&gt;n6 -->
<g id="edge32" class="edge">
<title>n13&#45;&gt;n6</title>
<path fill="none" stroke="#ff5722" d="M371.62,-78.17C383.78,-76.43 395.94,-76.05 408.1,-77.02"/>
<polygon fill="#ff5722" stroke="#ff5722" points="407.99,-80.53 418.32,-78.16 408.76,-73.58 407.99,-80.53"/>
</g>
<!-- n11 -->
<g id="node14" class="node">
<title>n11</title>
<polygon fill="#004488" stroke="transparent" points="371.5,-36 285.5,-36 285.5,0 371.5,0 371.5,-36"/>
<text text-anchor="middle" x="328.5" y="-14.3" font-family="Times,serif" font-size="14.00" fill="#f5f5f5">U8</text>
</g>
<!-- n13&#45;&gt;n11 -->
<g id="edge34" class="edge">
<title>n13&#45;&gt;n11</title>
<path fill="none" stroke="#ff5722" d="M316.67,-71.7C315.08,-63.98 314.62,-54.71 315.31,-46.11"/>
<polygon fill="#ff5722" stroke="#ff5722" points="318.79,-46.49 316.71,-36.1 311.86,-45.52 318.79,-46.49"/>
</g>
<!-- n6&#45;&gt;n10 -->
<g id="edge36" class="edge">
<title>n6&#45;&gt;n10</title>
<path fill="none" stroke="#ff5722" d="M473.29,-108.1C474.9,-115.79 475.37,-125.05 474.71,-133.67"/>
<polygon fill="#ff5722" stroke="#ff5722" points="471.22,-133.31 473.33,-143.7 478.16,-134.27 471.22,-133.31"/>
</g>
<!-- n6&#45;&gt;n13 -->
<g id="edge35" class="edge">
<title>n6&#45;&gt;n13</title>
<path fill="none" stroke="#ff5722" d="M418.32,-101.84C406.16,-103.57 394,-103.95 381.84,-102.97"/>
<polygon fill="#ff5722" stroke="#ff5722" points="381.95,-99.46 371.62,-101.83 381.17,-106.42 381.95,-99.46"/>
</g>
<!-- n12&#45;&gt;n8 -->
<g id="edge38" class="edge">
<title>n12&#45;&gt;n8</title>
<path fill="none" stroke="#ff5722" d="M71.29,-36.1C72.9,-43.79 73.37,-53.05 72.71,-61.67"/>
<polygon fill="#ff5722" stroke="#ff5722" points="69.22,-61.31 71.33,-71.7 76.16,-62.27 69.22,-61.31"/>
</g>
<!-- n12&#45;&gt;n11 -->
<g id="edge37" class="edge">
<title>n12&#45;&gt;n11</title>
<path fill="none" stroke="#ff5722" d="M102.58,-10.74C160.14,-2.88 217.71,-2.45 275.27,-9.43"/>
<polygon fill="#ff5722" stroke="#ff5722" points="274.89,-12.91 285.26,-10.71 275.79,-5.97 274.89,-12.91"/>
</g>
<!-- n11&#45;&gt;n13 -->
<g id="edge40" class="edge">
<title>n11&#45;&gt;n13</title>
<path fill="none" stroke="#ff5722" d="M340.29,-36.1C341.9,-43.79 342.37,-53.05 341.71,-61.67"/>
<polygon fill="#ff5722" stroke="#ff5722" points="338.22,-61.31 340.33,-71.7 345.16,-62.27 338.22,-61.31"/>
</g>
<!-- n11&#45;&gt;n12 -->
<g id="edge39" class="edge">
<title>n11&#45;&gt;n12</title>
<path fill="none" stroke="#ff5722" d="M285.26,-25.29C227.7,-33.13 170.13,-33.55 112.57,-26.55"/>
<polygon fill="#ff5722" stroke="#ff5722" points="112.95,-23.07 102.58,-25.26 112.05,-30.01 112.95,-23.07"/>
</g>
</g>
</svg>
