<?xml version="1.0" encoding="UTF-8" standalone="no"?>
<!DOCTYPE svg PUBLIC "-//W3C//DTD SVG 1.1//EN"
 "http://www.w3.org/Graphics/SVG/1.1/DTD/svg11.dtd">
<!-- Generated by graphviz version 2.43.0 (0)
 -->
<!-- Title: G Pages: 1 -->
<svg width="502pt" height="211pt"
 viewBox="0.00 0.00 501.50 211.00" xmlns="http://www.w3.org/2000/svg" xmlns:xlink="http://www.w3.org/1999/xlink">
<g id="graph0" class="graph" transform="scale(1 1) rotate(0) translate(4 207)">
<title>G</title>
<polygon fill="#f5f5f5" stroke="transparent" points="-4,4 -4,-207 497.5,-207 497.5,4 -4,4"/>
<text text-anchor="middle" x="246.75" y="-187.8" font-family="Times,serif" font-size="14.00">Matriz Dispersa</text>
<!-- n0 -->
<g id="node1" class="node">
<title>n0</title>
<polygon fill="#004488" stroke="transparent" points="119,-180 0,-180 0,-144 119,-144 119,-180"/>
<text text-anchor="middle" x="59.5" y="-158.3" font-family="Times,serif" font-size="14.00" fill="#f5f5f5">Administrador</text>
</g>
<!-- n2 -->
<g id="node2" class="node">
<title>n2</title>
<polygon fill="#004488" stroke="transparent" points="241.5,-180 155.5,-180 155.5,-144 241.5,-144 241.5,-180"/>
<text text-anchor="middle" x="198.5" y="-158.3" font-family="Times,serif" font-size="14.00" fill="#f5f5f5">Xela</text>
</g>
<!-- n0&#45;&gt;n2 -->
<g id="edge3" class="edge">
<title>n0&#45;&gt;n2</title>
<path fill="none" stroke="#ff5722" d="M119.23,-175.23C127.91,-175.71 136.59,-175.55 145.27,-174.76"/>
<polygon fill="#ff5722" stroke="#ff5722" points="145.94,-178.2 155.46,-173.54 145.11,-171.25 145.94,-178.2"/>
</g>
<!-- n3 -->
<g id="node5" class="node">
<title>n3</title>
<polygon fill="#004488" stroke="transparent" points="102.5,-108 16.5,-108 16.5,-72 102.5,-72 102.5,-108"/>
<text text-anchor="middle" x="59.5" y="-86.3" font-family="Times,serif" font-size="14.00" fill="#f5f5f5">Cemaco</text>
</g>
<!-- n0&#45;&gt;n3 -->
<g id="edge4" class="edge">
<title>n0&#45;&gt;n3</title>
<path fill="none" stroke="#ff5722" d="M47.67,-143.7C46.08,-135.98 45.62,-126.71 46.31,-118.11"/>
<polygon fill="#ff5722" stroke="#ff5722" points="49.79,-118.49 47.71,-108.1 42.86,-117.52 49.79,-118.49"/>
</g>
<!-- n2&#45;&gt;n0 -->
<g id="edge1" class="edge">
<title>n2&#45;&gt;n0</title>
<path fill="none" stroke="#ff5722" d="M155.46,-150.46C146.78,-149.17 138.1,-148.52 129.42,-148.5"/>
<polygon fill="#ff5722" stroke="#ff5722" points="129.13,-145.01 119.23,-148.77 129.31,-152 129.13,-145.01"/>
</g>
<!-- n5 -->
<g id="node3" class="node">
<title>n5</title>
<polygon fill="#004488" stroke="transparent" points="371.5,-180 277.5,-180 277.5,-144 371.5,-144 371.5,-180"/>
<text text-anchor="middle" x="324.5" y="-158.3" font-family="Times,serif" font-size="14.00" fill="#f5f5f5">Guatemala</text>
</g>
<!-- n2&#45;&gt;n5 -->
<g id="edge5" class="edge">
<title>n2&#45;&gt;n5</title>
<path fill="none" stroke="#ff5722" d="M241.81,-149.82C250.32,-148.68 258.84,-148.28 267.35,-148.62"/>
<polygon fill="#ff5722" stroke="#ff5722" points="267.11,-152.11 277.34,-149.35 267.63,-145.13 267.11,-152.11"/>
</g>
<!-- n1 -->
<g id="node6" class="node">
<title>n1</title>
<polygon fill="#004488" stroke="transparent" points="241.5,-108 155.5,-108 155.5,-72 241.5,-72 241.5,-108"/>
<text text-anchor="middle" x="198.5" y="-86.3" font-family="Times,serif" font-size="14.00" fill="#f5f5f5">U1</text>
</g>
<!-- n2&#45;&gt;n1 -->
<g id="edge6" class="edge">
<title>n2&#45;&gt;n1</title>
<path fill="none" stroke="#ff5722" d="M186.67,-143.7C185.08,-135.98 184.62,-126.71 185.31,-118.11"/>
<polygon fill="#ff5722" stroke="#ff5722" points="188.79,-118.49 186.71,-108.1 181.86,-117.52 188.79,-118.49"/>
</g>
<!-- n5&#45;&gt;n2 -->
<g id="edge7" class="edge">
<title>n5&#45;&gt;n2</title>
<path fill="none" stroke="#ff5722" d="M277.34,-174.65C268.83,-175.56 260.32,-175.74 251.81,-175.18"/>
<polygon fill="#ff5722" stroke="#ff5722" points="252.11,-171.69 241.81,-174.18 251.41,-178.66 252.11,-171.69"/>
</g>
<!-- n8 -->
<g id="node4" class="node">
<title>n8</title>
<polygon fill="#004488" stroke="transparent" points="493.5,-180 407.5,-180 407.5,-144 493.5,-144 493.5,-180"/>
<text text-anchor="middle" x="450.5" y="-158.3" font-family="Times,serif" font-size="14.00" fill="#f5f5f5">Escuintla</text>
</g>
<!-- n5&#45;&gt;n8 -->
<g id="edge8" class="edge">
<title>n5&#45;&gt;n8</title>
<path fill="none" stroke="#ff5722" d="M371.75,-149.34C380.3,-148.43 388.85,-148.26 397.4,-148.83"/>
<polygon fill="#ff5722" stroke="#ff5722" points="397.13,-152.32 407.43,-149.85 397.84,-145.36 397.13,-152.32"/>
</g>
<!-- n4 -->
<g id="node8" class="node">
<title>n4</title>
<polygon fill="#004488" stroke="transparent" points="367.5,-36 281.5,-36 281.5,0 367.5,0 367.5,-36"/>
<text text-anchor="middle" x="324.5" y="-14.3" font-family="Times,serif" font-size="14.00" fill="#f5f5f5">U2</text>
</g>
<!-- n5&#45;&gt;n4 -->
<g id="edge9" class="edge">
<title>n5&#45;&gt;n4</title>
<path fill="none" stroke="#ff5722" d="M315.33,-143.87C310.21,-119.67 309.63,-75.21 313.58,-46.39"/>
<polygon fill="#ff5722" stroke="#ff5722" points="317.09,-46.63 315.32,-36.19 310.19,-45.46 317.09,-46.63"/>
</g>
<!-- n8&#45;&gt;n5 -->
<g id="edge10" class="edge">
<title>n8&#45;&gt;n5</title>
<path fill="none" stroke="#ff5722" d="M407.43,-174.15C398.88,-175.31 390.34,-175.72 381.79,-175.39"/>
<polygon fill="#ff5722" stroke="#ff5722" points="381.98,-171.89 371.75,-174.66 381.47,-178.88 381.98,-171.89"/>
</g>
<!-- n7 -->
<g id="node9" class="node">
<title>n7</title>
<polygon fill="#004488" stroke="transparent" points="493.5,-36 407.5,-36 407.5,0 493.5,0 493.5,-36"/>
<text text-anchor="middle" x="450.5" y="-14.3" font-family="Times,serif" font-size="14.00" fill="#f5f5f5">U3</text>
</g>
<!-- n8&#45;&gt;n7 -->
<g id="edge11" class="edge">
<title>n8&#45;&gt;n7</title>
<path fill="none" stroke="#ff5722" d="M441.33,-143.87C436.21,-119.67 435.63,-75.21 439.58,-46.39"/>
<polygon fill="#ff5722" stroke="#ff5722" points="443.09,-46.63 441.32,-36.19 436.19,-45.46 443.09,-46.63"/>
</g>
<!-- n3&#45;&gt;n0 -->
<g id="edge2" class="edge">
<title>n3&#45;&gt;n0</title>
<path fill="none" stroke="#ff5722" d="M71.29,-108.1C72.9,-115.79 73.37,-125.05 72.71,-133.67"/>
<polygon fill="#ff5722" stroke="#ff5722" points="69.22,-133.31 71.33,-143.7 76.16,-134.27 69.22,-133.31"/>
</g>
<!-- n3&#45;&gt;n1 -->
<g id="edge12" class="edge">
<title>n3&#45;&gt;n1</title>
<path fill="none" stroke="#ff5722" d="M102.67,-78.44C116.82,-76.35 130.98,-75.95 145.14,-77.23"/>
<polygon fill="#ff5722" stroke="#ff5722" points="145.11,-80.75 155.45,-78.46 145.93,-73.8 145.11,-80.75"/>
</g>
<!-- n6 -->
<g id="node7" class="node">
<title>n6</title>
<polygon fill="#004488" stroke="transparent" points="102.5,-36 16.5,-36 16.5,0 102.5,0 102.5,-36"/>
<text text-anchor="middle" x="59.5" y="-14.3" font-family="Times,serif" font-size="14.00" fill="#f5f5f5">Max</text>
</g>
<!-- n3&#45;&gt;n6 -->
<g id="edge13" class="edge">
<title>n3&#45;&gt;n6</title>
<path fill="none" stroke="#ff5722" d="M47.67,-71.7C46.08,-63.98 45.62,-54.71 46.31,-46.11"/>
<polygon fill="#ff5722" stroke="#ff5722" points="49.79,-46.49 47.71,-36.1 42.86,-45.52 49.79,-46.49"/>
</g>
<!-- n1&#45;&gt;n2 -->
<g id="edge15" class="edge">
<title>n1&#45;&gt;n2</title>
<path fill="none" stroke="#ff5722" d="M210.29,-108.1C211.9,-115.79 212.37,-125.05 211.71,-133.67"/>
<polygon fill="#ff5722" stroke="#ff5722" points="208.22,-133.31 210.33,-143.7 215.16,-134.27 208.22,-133.31"/>
</g>
<!-- n1&#45;&gt;n3 -->
<g id="edge14" class="edge">
<title>n1&#45;&gt;n3</title>
<path fill="none" stroke="#ff5722" d="M155.45,-101.54C141.29,-103.64 127.13,-104.05 112.98,-102.78"/>
<polygon fill="#ff5722" stroke="#ff5722" points="113.01,-99.26 102.67,-101.56 112.19,-106.21 113.01,-99.26"/>
</g>
<!-- n6&#45;&gt;n3 -->
<g id="edge17" class="edge">
<title>n6&#45;&gt;n3</title>
<path fill="none" stroke="#ff5722" d="M71.29,-36.1C72.9,-43.79 73.37,-53.05 72.71,-61.67"/>
<polygon fill="#ff5722" stroke="#ff5722" points="69.22,-61.31 71.33,-71.7 76.16,-62.27 69.22,-61.31"/>
</g>
<!-- n6&#45;&gt;n4 -->
<g id="edge16" class="edge">
<title>n6&#45;&gt;n4</title>
<path fill="none" stroke="#ff5722" d="M102.72,-10.63C158.84,-2.92 214.96,-2.48 271.07,-9.31"/>
<polygon fill="#ff5722" stroke="#ff5722" points="270.82,-12.8 281.18,-10.62 271.71,-5.86 270.82,-12.8"/>
</g>
<!-- n4&#45;&gt;n5 -->
<g id="edge20" class="edge">
<title>n4&#45;&gt;n5</title>
<path fill="none" stroke="#ff5722" d="M333.68,-36.19C338.79,-60.42 339.37,-104.89 335.41,-133.68"/>
<polygon fill="#ff5722" stroke="#ff5722" points="331.9,-133.43 333.67,-143.87 338.8,-134.6 331.9,-133.43"/>
</g>
<!-- n4&#45;&gt;n6 -->
<g id="edge18" class="edge">
<title>n4&#45;&gt;n6</title>
<path fill="none" stroke="#ff5722" d="M281.18,-25.38C225.06,-33.08 168.95,-33.51 112.83,-26.68"/>
<polygon fill="#ff5722" stroke="#ff5722" points="113.08,-23.18 102.72,-25.37 112.19,-30.13 113.08,-23.18"/>
</g>
<!-- n4&#45;&gt;n7 -->
<g id="edge19" class="edge">
<title>n4&#45;&gt;n7</title>
<path fill="none" stroke="#ff5722" d="M367.81,-5.82C377.56,-4.51 387.31,-4.18 397.06,-4.81"/>
<polygon fill="#ff5722" stroke="#ff5722" points="396.92,-8.31 407.22,-5.82 397.61,-1.35 396.92,-8.31"/>
</g>
<!-- n7&#45;&gt;n8 -->
<g id="edge22" class="edge">
<title>n7&#45;&gt;n8</title>
<path fill="none" stroke="#ff5722" d="M459.68,-36.19C464.79,-60.42 465.37,-104.89 461.41,-133.68"/>
<polygon fill="#ff5722" stroke="#ff5722" points="457.9,-133.43 459.67,-143.87 464.8,-134.6 457.9,-133.43"/>
</g>
<!-- n7&#45;&gt;n4 -->
<g id="edge21" class="edge">
<title>n7&#45;&gt;n4</title>
<path fill="none" stroke="#ff5722" d="M407.22,-30.18C397.47,-31.49 387.72,-31.82 377.97,-31.19"/>
<polygon fill="#ff5722" stroke="#ff5722" points="378.11,-27.69 367.81,-30.18 377.42,-34.65 378.11,-27.69"/>
</g>
</g>
</svg>
