<?xml version="1.0" encoding="UTF-8" standalone="no"?>
<!DOCTYPE svg PUBLIC "-//W3C//DTD SVG 1.1//EN"
 "http://www.w3.org/Graphics/SVG/1.1/DTD/svg11.dtd">
<!-- Generated by graphviz version 2.43.0 (0)
 -->
<!-- Title: G Pages: 1 -->
<svg width="523pt" height="283pt"
 viewBox="0.00 0.00 523.00 283.00" xmlns="http://www.w3.org/2000/svg" xmlns:xlink="http://www.w3.org/1999/xlink">
<g id="graph0" class="graph" transform="scale(1 1) rotate(0) translate(4 279)">
<title>G</title>
<polygon fill="#f5f5f5" stroke="transparent" points="-4,4 -4,-279 519,-279 519,4 -4,4"/>
<text text-anchor="middle" x="257.5" y="-259.8" font-family="Times,serif" font-size="14.00">Matriz Dispersa</text>
<!-- n0 -->
<g id="node1" class="node">
<title>n0</title>
<polygon fill="#004488" stroke="transparent" points="119,-252 0,-252 0,-216 119,-216 119,-252"/>
<text text-anchor="middle" x="59.5" y="-230.3" font-family="Times,serif" font-size="14.00" fill="#f5f5f5">Administrador</text>
</g>
<!-- n2 -->
<g id="node2" class="node">
<title>n2</title>
<polygon fill="#004488" stroke="transparent" points="241.5,-252 155.5,-252 155.5,-216 241.5,-216 241.5,-252"/>
<text text-anchor="middle" x="198.5" y="-230.3" font-family="Times,serif" font-size="14.00" fill="#f5f5f5">Xela</text>
</g>
<!-- n0&#45;&gt;n2 -->
<g id="edge3" class="edge">
<title>n0&#45;&gt;n2</title>
<path fill="none" stroke="#ff5722" d="M119.23,-247.23C127.91,-247.71 136.59,-247.55 145.27,-246.76"/>
<polygon fill="#ff5722" stroke="#ff5722" points="145.94,-250.2 155.46,-245.54 145.11,-243.25 145.94,-250.2"/>
</g>
<!-- n3 -->
<g id="node5" class="node">
<title>n3</title>
<polygon fill="#004488" stroke="transparent" points="102.5,-180 16.5,-180 16.5,-144 102.5,-144 102.5,-180"/>
<text text-anchor="middle" x="59.5" y="-158.3" font-family="Times,serif" font-size="14.00" fill="#f5f5f5">Max</text>
</g>
<!-- n0&#45;&gt;n3 -->
<g id="edge4" class="edge">
<title>n0&#45;&gt;n3</title>
<path fill="none" stroke="#ff5722" d="M47.67,-215.7C46.08,-207.98 45.62,-198.71 46.31,-190.11"/>
<polygon fill="#ff5722" stroke="#ff5722" points="49.79,-190.49 47.71,-180.1 42.86,-189.52 49.79,-190.49"/>
</g>
<!-- n2&#45;&gt;n0 -->
<g id="edge1" class="edge">
<title>n2&#45;&gt;n0</title>
<path fill="none" stroke="#ff5722" d="M155.46,-222.46C146.78,-221.17 138.1,-220.52 129.42,-220.5"/>
<polygon fill="#ff5722" stroke="#ff5722" points="129.13,-217.01 119.23,-220.77 129.31,-224 129.13,-217.01"/>
</g>
<!-- n5 -->
<g id="node3" class="node">
<title>n5</title>
<polygon fill="#004488" stroke="transparent" points="371.5,-252 277.5,-252 277.5,-216 371.5,-216 371.5,-252"/>
<text text-anchor="middle" x="324.5" y="-230.3" font-family="Times,serif" font-size="14.00" fill="#f5f5f5">Guatemala</text>
</g>
<!-- n2&#45;&gt;n5 -->
<g id="edge5" class="edge">
<title>n2&#45;&gt;n5</title>
<path fill="none" stroke="#ff5722" d="M241.81,-221.82C250.32,-220.68 258.84,-220.28 267.35,-220.62"/>
<polygon fill="#ff5722" stroke="#ff5722" points="267.11,-224.11 277.34,-221.35 267.63,-217.13 267.11,-224.11"/>
</g>
<!-- n1 -->
<g id="node6" class="node">
<title>n1</title>
<polygon fill="#004488" stroke="transparent" points="241.5,-180 155.5,-180 155.5,-144 241.5,-144 241.5,-180"/>
<text text-anchor="middle" x="198.5" y="-158.3" font-family="Times,serif" font-size="14.00" fill="#f5f5f5">U1</text>
</g>
<!-- n2&#45;&gt;n1 -->
<g id="edge6" class="edge">
<title>n2&#45;&gt;n1</title>
<path fill="none" stroke="#ff5722" d="M186.67,-215.7C185.08,-207.98 184.62,-198.71 185.31,-190.11"/>
<polygon fill="#ff5722" stroke="#ff5722" points="188.79,-190.49 186.71,-180.1 181.86,-189.52 188.79,-190.49"/>
</g>
<!-- n5&#45;&gt;n2 -->
<g id="edge7" class="edge">
<title>n5&#45;&gt;n2</title>
<path fill="none" stroke="#ff5722" d="M277.34,-246.65C268.83,-247.56 260.32,-247.74 251.81,-247.18"/>
<polygon fill="#ff5722" stroke="#ff5722" points="252.11,-243.69 241.81,-246.18 251.41,-250.66 252.11,-243.69"/>
</g>
<!-- n10 -->
<g id="node4" class="node">
<title>n10</title>
<polygon fill="#004488" stroke="transparent" points="515,-252 408,-252 408,-216 515,-216 515,-252"/>
<text text-anchor="middle" x="461.5" y="-230.3" font-family="Times,serif" font-size="14.00" fill="#f5f5f5">Alta Verapaz</text>
</g>
<!-- n5&#45;&gt;n10 -->
<g id="edge8" class="edge">
<title>n5&#45;&gt;n10</title>
<path fill="none" stroke="#ff5722" d="M371.59,-221.82C380.26,-220.75 388.93,-220.33 397.59,-220.56"/>
<polygon fill="#ff5722" stroke="#ff5722" points="397.59,-224.07 407.77,-221.13 397.98,-217.08 397.59,-224.07"/>
</g>
<!-- n8 -->
<g id="node7" class="node">
<title>n8</title>
<polygon fill="#004488" stroke="transparent" points="367.5,-180 281.5,-180 281.5,-144 367.5,-144 367.5,-180"/>
<text text-anchor="middle" x="324.5" y="-158.3" font-family="Times,serif" font-size="14.00" fill="#f5f5f5">U4</text>
</g>
<!-- n5&#45;&gt;n8 -->
<g id="edge9" class="edge">
<title>n5&#45;&gt;n8</title>
<path fill="none" stroke="#ff5722" d="M312.67,-215.7C311.08,-207.98 310.62,-198.71 311.31,-190.11"/>
<polygon fill="#ff5722" stroke="#ff5722" points="314.79,-190.49 312.71,-180.1 307.86,-189.52 314.79,-190.49"/>
</g>
<!-- n10&#45;&gt;n5 -->
<g id="edge10" class="edge">
<title>n10&#45;&gt;n5</title>
<path fill="none" stroke="#ff5722" d="M407.77,-246.87C399.1,-247.61 390.43,-247.7 381.77,-247.14"/>
<polygon fill="#ff5722" stroke="#ff5722" points="381.88,-243.63 371.59,-246.18 381.22,-250.6 381.88,-243.63"/>
</g>
<!-- n9 -->
<g id="node11" class="node">
<title>n9</title>
<polygon fill="#004488" stroke="transparent" points="504.5,-36 418.5,-36 418.5,0 504.5,0 504.5,-36"/>
<text text-anchor="middle" x="461.5" y="-14.3" font-family="Times,serif" font-size="14.00" fill="#f5f5f5">U5</text>
</g>
<!-- n10&#45;&gt;n9 -->
<g id="edge11" class="edge">
<title>n10&#45;&gt;n9</title>
<path fill="none" stroke="#ff5722" d="M453.74,-215.85C446.67,-178.83 446.13,-91.18 452.12,-46.39"/>
<polygon fill="#ff5722" stroke="#ff5722" points="455.62,-46.66 453.73,-36.23 448.7,-45.56 455.62,-46.66"/>
</g>
<!-- n3&#45;&gt;n0 -->
<g id="edge2" class="edge">
<title>n3&#45;&gt;n0</title>
<path fill="none" stroke="#ff5722" d="M71.29,-180.1C72.9,-187.79 73.37,-197.05 72.71,-205.67"/>
<polygon fill="#ff5722" stroke="#ff5722" points="69.22,-205.31 71.33,-215.7 76.16,-206.27 69.22,-205.31"/>
</g>
<!-- n3&#45;&gt;n1 -->
<g id="edge12" class="edge">
<title>n3&#45;&gt;n1</title>
<path fill="none" stroke="#ff5722" d="M102.67,-150.44C116.82,-148.35 130.98,-147.95 145.14,-149.23"/>
<polygon fill="#ff5722" stroke="#ff5722" points="145.11,-152.75 155.45,-150.46 145.93,-145.8 145.11,-152.75"/>
</g>
<!-- n6 -->
<g id="node8" class="node">
<title>n6</title>
<polygon fill="#004488" stroke="transparent" points="102.5,-108 16.5,-108 16.5,-72 102.5,-72 102.5,-108"/>
<text text-anchor="middle" x="59.5" y="-86.3" font-family="Times,serif" font-size="14.00" fill="#f5f5f5">Cemaco</text>
</g>
<!-- n3&#45;&gt;n6 -->
<g id="edge13" class="edge">
<title>n3&#45;&gt;n6</title>
<path fill="none" stroke="#ff5722" d="M47.67,-143.7C46.08,-135.98 45.62,-126.71 46.31,-118.11"/>
<polygon fill="#ff5722" stroke="#ff5722" points="49.79,-118.49 47.71,-108.1 42.86,-117.52 49.79,-118.49"/>
</g>
<!-- n1&#45;&gt;n2 -->
<g id="edge16" class="edge">
<title>n1&#45;&gt;n2</title>
<path fill="none" stroke="#ff5722" d="M210.29,-180.1C211.9,-187.79 212.37,-197.05 211.71,-205.67"/>
<polygon fill="#ff5722" stroke="#ff5722" points="208.22,-205.31 210.33,-215.7 215.16,-206.27 208.22,-205.31"/>
</g>
<!-- n1&#45;&gt;n3 -->
<g id="edge14" class="edge">
<title>n1&#45;&gt;n3</title>
<path fill="none" stroke="#ff5722" d="M155.45,-173.54C141.29,-175.64 127.13,-176.05 112.98,-174.78"/>
<polygon fill="#ff5722" stroke="#ff5722" points="113.01,-171.26 102.67,-173.56 112.19,-178.21 113.01,-171.26"/>
</g>
<!-- n1&#45;&gt;n8 -->
<g id="edge15" class="edge">
<title>n1&#45;&gt;n8</title>
<path fill="none" stroke="#ff5722" d="M241.81,-149.82C251.56,-148.51 261.31,-148.18 271.06,-148.81"/>
<polygon fill="#ff5722" stroke="#ff5722" points="270.92,-152.31 281.22,-149.82 271.61,-145.35 270.92,-152.31"/>
</g>
<!-- n8&#45;&gt;n5 -->
<g id="edge18" class="edge">
<title>n8&#45;&gt;n5</title>
<path fill="none" stroke="#ff5722" d="M336.29,-180.1C337.9,-187.79 338.37,-197.05 337.71,-205.67"/>
<polygon fill="#ff5722" stroke="#ff5722" points="334.22,-205.31 336.33,-215.7 341.16,-206.27 334.22,-205.31"/>
</g>
<!-- n8&#45;&gt;n1 -->
<g id="edge17" class="edge">
<title>n8&#45;&gt;n1</title>
<path fill="none" stroke="#ff5722" d="M281.22,-174.18C271.47,-175.49 261.72,-175.82 251.97,-175.19"/>
<polygon fill="#ff5722" stroke="#ff5722" points="252.11,-171.69 241.81,-174.18 251.42,-178.65 252.11,-171.69"/>
</g>
<!-- n4 -->
<g id="node9" class="node">
<title>n4</title>
<polygon fill="#004488" stroke="transparent" points="367.5,-108 281.5,-108 281.5,-72 367.5,-72 367.5,-108"/>
<text text-anchor="middle" x="324.5" y="-86.3" font-family="Times,serif" font-size="14.00" fill="#f5f5f5">U2</text>
</g>
<!-- n8&#45;&gt;n4 -->
<g id="edge19" class="edge">
<title>n8&#45;&gt;n4</title>
<path fill="none" stroke="#ff5722" d="M312.67,-143.7C311.08,-135.98 310.62,-126.71 311.31,-118.11"/>
<polygon fill="#ff5722" stroke="#ff5722" points="314.79,-118.49 312.71,-108.1 307.86,-117.52 314.79,-118.49"/>
</g>
<!-- n6&#45;&gt;n3 -->
<g id="edge21" class="edge">
<title>n6&#45;&gt;n3</title>
<path fill="none" stroke="#ff5722" d="M71.29,-108.1C72.9,-115.79 73.37,-125.05 72.71,-133.67"/>
<polygon fill="#ff5722" stroke="#ff5722" points="69.22,-133.31 71.33,-143.7 76.16,-134.27 69.22,-133.31"/>
</g>
<!-- n6&#45;&gt;n4 -->
<g id="edge20" class="edge">
<title>n6&#45;&gt;n4</title>
<path fill="none" stroke="#ff5722" d="M102.72,-82.63C158.84,-74.92 214.96,-74.48 271.07,-81.31"/>
<polygon fill="#ff5722" stroke="#ff5722" points="270.82,-84.8 281.18,-82.62 271.71,-77.86 270.82,-84.8"/>
</g>
<!-- n11 -->
<g id="node10" class="node">
<title>n11</title>
<polygon fill="#004488" stroke="transparent" points="102.5,-36 16.5,-36 16.5,0 102.5,0 102.5,-36"/>
<text text-anchor="middle" x="59.5" y="-14.3" font-family="Times,serif" font-size="14.00" fill="#f5f5f5">Campero</text>
</g>
<!-- n6&#45;&gt;n11 -->
<g id="edge22" class="edge">
<title>n6&#45;&gt;n11</title>
<path fill="none" stroke="#ff5722" d="M47.67,-71.7C46.08,-63.98 45.62,-54.71 46.31,-46.11"/>
<polygon fill="#ff5722" stroke="#ff5722" points="49.79,-46.49 47.71,-36.1 42.86,-45.52 49.79,-46.49"/>
</g>
<!-- n4&#45;&gt;n8 -->
<g id="edge24" class="edge">
<title>n4&#45;&gt;n8</title>
<path fill="none" stroke="#ff5722" d="M336.29,-108.1C337.9,-115.79 338.37,-125.05 337.71,-133.67"/>
<polygon fill="#ff5722" stroke="#ff5722" points="334.22,-133.31 336.33,-143.7 341.16,-134.27 334.22,-133.31"/>
</g>
<!-- n4&#45;&gt;n6 -->
<g id="edge23" class="edge">
<title>n4&#45;&gt;n6</title>
<path fill="none" stroke="#ff5722" d="M281.18,-97.38C225.06,-105.08 168.95,-105.51 112.83,-98.68"/>
<polygon fill="#ff5722" stroke="#ff5722" points="113.08,-95.18 102.72,-97.37 112.19,-102.13 113.08,-95.18"/>
</g>
<!-- n11&#45;&gt;n6 -->
<g id="edge26" class="edge">
<title>n11&#45;&gt;n6</title>
<path fill="none" stroke="#ff5722" d="M71.29,-36.1C72.9,-43.79 73.37,-53.05 72.71,-61.67"/>
<polygon fill="#ff5722" stroke="#ff5722" points="69.22,-61.31 71.33,-71.7 76.16,-62.27 69.22,-61.31"/>
</g>
<!-- n11&#45;&gt;n9 -->
<g id="edge25" class="edge">
<title>n11&#45;&gt;n9</title>
<path fill="none" stroke="#ff5722" d="M102.68,-12.82C204.53,-2.08 306.38,-1.74 408.23,-11.79"/>
<polygon fill="#ff5722" stroke="#ff5722" points="408.1,-15.3 418.4,-12.83 408.81,-8.33 408.1,-15.3"/>
</g>
<!-- n9&#45;&gt;n10 -->
<g id="edge28" class="edge">
<title>n9&#45;&gt;n10</title>
<path fill="none" stroke="#ff5722" d="M469.27,-36.23C476.33,-73.32 476.87,-160.98 470.87,-205.71"/>
<polygon fill="#ff5722" stroke="#ff5722" points="467.37,-205.42 469.26,-215.85 474.29,-206.53 467.37,-205.42"/>
</g>
<!-- n9&#45;&gt;n11 -->
<g id="edge27" class="edge">
<title>n9&#45;&gt;n11</title>
<path fill="none" stroke="#ff5722" d="M418.4,-23.17C316.55,-33.92 214.71,-34.27 112.86,-24.22"/>
<polygon fill="#ff5722" stroke="#ff5722" points="112.99,-20.71 102.68,-23.18 112.28,-27.68 112.99,-20.71"/>
</g>
</g>
</svg>
