<?xml version="1.0" encoding="UTF-8" standalone="no"?>
<!DOCTYPE svg PUBLIC "-//W3C//DTD SVG 1.1//EN"
 "http://www.w3.org/Graphics/SVG/1.1/DTD/svg11.dtd">
<!-- Generated by graphviz version 2.43.0 (0)
 -->
<!-- Title: G Pages: 1 -->
<svg width="140pt" height="188pt"
 viewBox="0.00 0.00 140.19 188.00" xmlns="http://www.w3.org/2000/svg" xmlns:xlink="http://www.w3.org/1999/xlink">
<g id="graph0" class="graph" transform="scale(1 1) rotate(0) translate(4 184)">
<title>G</title>
<polygon fill="white" stroke="transparent" points="-4,4 -4,-184 136.19,-184 136.19,4 -4,4"/>
<!-- n4 -->
<g id="node1" class="node">
<title>n4</title>
<polygon fill="none" stroke="black" points="92.6,-180 38.6,-180 38.6,-144 92.6,-144 92.6,-180"/>
<text text-anchor="middle" x="65.6" y="-158.3" font-family="Times,serif" font-size="14.00">U2</text>
</g>
<!-- nq5f83iafo4g4f2u -->
<g id="node2" class="node">
<title>nq5f83iafo4g4f2u</title>
<ellipse fill="red" stroke="black" cx="65.6" cy="-90" rx="28.7" ry="18"/>
<text text-anchor="middle" x="65.6" y="-86.3" font-family="Times,serif" font-size="14.00">A11</text>
</g>
<!-- n4&#45;&gt;nq5f83iafo4g4f2u -->
<g id="edge1" class="edge">
<title>n4&#45;&gt;nq5f83iafo4g4f2u</title>
<path fill="none" stroke="black" d="M65.6,-143.7C65.6,-135.98 65.6,-126.71 65.6,-118.11"/>
<polygon fill="black" stroke="black" points="69.1,-118.1 65.6,-108.1 62.1,-118.1 69.1,-118.1"/>
</g>
<!-- n019t78f8zl202s8 -->
<g id="node3" class="node">
<title>n019t78f8zl202s8</title>
<ellipse fill="green" stroke="black" cx="28.6" cy="-18" rx="28.7" ry="18"/>
<text text-anchor="middle" x="28.6" y="-14.3" font-family="Times,serif" font-size="14.00">A14</text>
</g>
<!-- nq5f83iafo4g4f2u&#45;&gt;n019t78f8zl202s8 -->
<g id="edge2" class="edge">
<title>nq5f83iafo4g4f2u&#45;&gt;n019t78f8zl202s8</title>
<path fill="none" stroke="black" d="M57.02,-72.76C52.6,-64.4 47.11,-54.02 42.13,-44.61"/>
<polygon fill="black" stroke="black" points="45.16,-42.84 37.39,-35.63 38.97,-46.11 45.16,-42.84"/>
</g>
<!-- nrmo53pgsaar4agr -->
<g id="node4" class="node">
<title>nrmo53pgsaar4agr</title>
<ellipse fill="green" stroke="black" cx="103.6" cy="-18" rx="28.7" ry="18"/>
<text text-anchor="middle" x="103.6" y="-14.3" font-family="Times,serif" font-size="14.00">A12</text>
</g>
<!-- nq5f83iafo4g4f2u&#45;&gt;nrmo53pgsaar4agr -->
<g id="edge3" class="edge">
<title>nq5f83iafo4g4f2u&#45;&gt;nrmo53pgsaar4agr</title>
<path fill="none" stroke="black" d="M74.41,-72.76C79.02,-64.28 84.75,-53.71 89.92,-44.2"/>
<polygon fill="black" stroke="black" points="93.14,-45.61 94.83,-35.15 86.98,-42.27 93.14,-45.61"/>
</g>
</g>
</svg>
