<?xml version="1.0" encoding="UTF-8" standalone="no"?>
<!DOCTYPE svg PUBLIC "-//W3C//DTD SVG 1.1//EN"
 "http://www.w3.org/Graphics/SVG/1.1/DTD/svg11.dtd">
<!-- Generated by graphviz version 2.43.0 (0)
 -->
<!-- Title: G Pages: 1 -->
<svg width="106pt" height="211pt"
 viewBox="0.00 0.00 106.00 211.00" xmlns="http://www.w3.org/2000/svg" xmlns:xlink="http://www.w3.org/1999/xlink">
<g id="graph0" class="graph" transform="scale(1 1) rotate(0) translate(4 207)">
<title>G</title>
<polygon fill="white" stroke="transparent" points="-4,4 -4,-207 102,-207 102,4 -4,4"/>
<text text-anchor="middle" x="49" y="-187.8" font-family="Times,serif" font-size="14.00">Activos U4 </text>
<!-- n8 -->
<g id="node1" class="node">
<title>n8</title>
<polygon fill="none" stroke="black" points="76,-180 22,-180 22,-144 76,-144 76,-180"/>
<text text-anchor="middle" x="49" y="-158.3" font-family="Times,serif" font-size="14.00">U4</text>
</g>
<!-- n8c9t8ff9075svj8 -->
<g id="node2" class="node">
<title>n8c9t8ff9075svj8</title>
<ellipse fill="green" stroke="black" cx="49" cy="-90" rx="28.7" ry="18"/>
<text text-anchor="middle" x="49" y="-86.3" font-family="Times,serif" font-size="14.00">A24</text>
</g>
<!-- n8&#45;&gt;n8c9t8ff9075svj8 -->
<g id="edge1" class="edge">
<title>n8&#45;&gt;n8c9t8ff9075svj8</title>
<path fill="none" stroke="black" d="M49,-143.7C49,-135.98 49,-126.71 49,-118.11"/>
<polygon fill="black" stroke="black" points="52.5,-118.1 49,-108.1 45.5,-118.1 52.5,-118.1"/>
</g>
<!-- nj6ielcs52c1hx11 -->
<g id="node3" class="node">
<title>nj6ielcs52c1hx11</title>
<ellipse fill="red" stroke="black" cx="49" cy="-18" rx="28.7" ry="18"/>
<text text-anchor="middle" x="49" y="-14.3" font-family="Times,serif" font-size="14.00">A14</text>
</g>
<!-- n8c9t8ff9075svj8&#45;&gt;nj6ielcs52c1hx11 -->
<g id="edge2" class="edge">
<title>n8c9t8ff9075svj8&#45;&gt;nj6ielcs52c1hx11</title>
<path fill="none" stroke="black" d="M49,-71.7C49,-63.98 49,-54.71 49,-46.11"/>
<polygon fill="black" stroke="black" points="52.5,-46.1 49,-36.1 45.5,-46.1 52.5,-46.1"/>
</g>
</g>
</svg>
