<?xml version="1.0" encoding="UTF-8" standalone="no"?>
<!DOCTYPE svg PUBLIC "-//W3C//DTD SVG 1.1//EN"
 "http://www.w3.org/Graphics/SVG/1.1/DTD/svg11.dtd">
<!-- Generated by graphviz version 2.43.0 (0)
 -->
<!-- Title: G Pages: 1 -->
<svg width="134pt" height="188pt"
 viewBox="0.00 0.00 134.00 188.00" xmlns="http://www.w3.org/2000/svg" xmlns:xlink="http://www.w3.org/1999/xlink">
<g id="graph0" class="graph" transform="scale(1 1) rotate(0) translate(4 184)">
<title>G</title>
<polygon fill="white" stroke="transparent" points="-4,4 -4,-184 130,-184 130,4 -4,4"/>
<!-- n1 -->
<g id="node1" class="node">
<title>n1</title>
<polygon fill="none" stroke="black" points="90,-180 36,-180 36,-144 90,-144 90,-180"/>
<text text-anchor="middle" x="63" y="-158.3" font-family="Times,serif" font-size="14.00">U1</text>
</g>
<!-- nb54vz0f2p2mx2mt -->
<g id="node2" class="node">
<title>nb54vz0f2p2mx2mt</title>
<ellipse fill="green" stroke="black" cx="63" cy="-90" rx="27" ry="18"/>
<text text-anchor="middle" x="63" y="-86.3" font-family="Times,serif" font-size="14.00">A2</text>
</g>
<!-- n1&#45;&gt;nb54vz0f2p2mx2mt -->
<g id="edge1" class="edge">
<title>n1&#45;&gt;nb54vz0f2p2mx2mt</title>
<path fill="none" stroke="black" d="M63,-143.7C63,-135.98 63,-126.71 63,-118.11"/>
<polygon fill="black" stroke="black" points="66.5,-118.1 63,-108.1 59.5,-118.1 66.5,-118.1"/>
</g>
<!-- n46o83u9gsda0u2p -->
<g id="node3" class="node">
<title>n46o83u9gsda0u2p</title>
<ellipse fill="green" stroke="black" cx="27" cy="-18" rx="27" ry="18"/>
<text text-anchor="middle" x="27" y="-14.3" font-family="Times,serif" font-size="14.00">A3</text>
</g>
<!-- nb54vz0f2p2mx2mt&#45;&gt;n46o83u9gsda0u2p -->
<g id="edge2" class="edge">
<title>nb54vz0f2p2mx2mt&#45;&gt;n46o83u9gsda0u2p</title>
<path fill="none" stroke="black" d="M54.65,-72.76C50.29,-64.28 44.85,-53.71 39.96,-44.2"/>
<polygon fill="black" stroke="black" points="42.99,-42.44 35.3,-35.15 36.77,-45.64 42.99,-42.44"/>
</g>
<!-- nvqwr0qz6yo8qw91 -->
<g id="node4" class="node">
<title>nvqwr0qz6yo8qw91</title>
<ellipse fill="green" stroke="black" cx="99" cy="-18" rx="27" ry="18"/>
<text text-anchor="middle" x="99" y="-14.3" font-family="Times,serif" font-size="14.00">A1</text>
</g>
<!-- nb54vz0f2p2mx2mt&#45;&gt;nvqwr0qz6yo8qw91 -->
<g id="edge3" class="edge">
<title>nb54vz0f2p2mx2mt&#45;&gt;nvqwr0qz6yo8qw91</title>
<path fill="none" stroke="black" d="M71.35,-72.76C75.71,-64.28 81.15,-53.71 86.04,-44.2"/>
<polygon fill="black" stroke="black" points="89.23,-45.64 90.7,-35.15 83.01,-42.44 89.23,-45.64"/>
</g>
</g>
</svg>
