<?xml version="1.0" encoding="UTF-8" standalone="no"?>
<!DOCTYPE svg PUBLIC "-//W3C//DTD SVG 1.1//EN"
 "http://www.w3.org/Graphics/SVG/1.1/DTD/svg11.dtd">
<!-- Generated by graphviz version 2.43.0 (0)
 -->
<!-- Title: G Pages: 1 -->
<svg width="190pt" height="108pt"
 viewBox="0.00 0.00 189.50 108.08" xmlns="http://www.w3.org/2000/svg" xmlns:xlink="http://www.w3.org/1999/xlink">
<g id="graph0" class="graph" transform="scale(1 1) rotate(0) translate(4 104.08)">
<title>G</title>
<polygon fill="#f5f5f5" stroke="transparent" points="-4,4 -4,-104.08 185.5,-104.08 185.5,4 -4,4"/>
<text text-anchor="middle" x="90.75" y="-84.88" font-family="Times,serif" font-size="14.00">Activos rentados U2</text>
<!-- n1 -->
<g id="node1" class="node">
<title>n1</title>
<polygon fill="#004488" stroke="transparent" points="75,-57.54 0,-57.54 0,-19.54 75,-19.54 75,-57.54"/>
<text text-anchor="middle" x="37.5" y="-49.54" font-family="Times,serif" font-size="5.00" fill="#f5f5f5">id = dw9h8cenzhge37g</text>
<text text-anchor="middle" x="37.5" y="-43.54" font-family="Times,serif" font-size="5.00" fill="#f5f5f5">Tipo = Renta</text>
<text text-anchor="middle" x="37.5" y="-37.54" font-family="Times,serif" font-size="5.00" fill="#f5f5f5">Usuario = U2</text>
<text text-anchor="middle" x="37.5" y="-31.54" font-family="Times,serif" font-size="5.00" fill="#f5f5f5">Activo = A31</text>
<text text-anchor="middle" x="37.5" y="-25.54" font-family="Times,serif" font-size="5.00" fill="#f5f5f5">Tiempo renta = 1</text>
</g>
<!-- n2 -->
<g id="node2" class="node">
<title>n2</title>
<polygon fill="#004488" stroke="transparent" points="181.5,-57.54 111.5,-57.54 111.5,-19.54 181.5,-19.54 181.5,-57.54"/>
<text text-anchor="middle" x="146.5" y="-49.54" font-family="Times,serif" font-size="5.00" fill="#f5f5f5">id = 8j29wig49f3rdey</text>
<text text-anchor="middle" x="146.5" y="-43.54" font-family="Times,serif" font-size="5.00" fill="#f5f5f5">Tipo = Renta</text>
<text text-anchor="middle" x="146.5" y="-37.54" font-family="Times,serif" font-size="5.00" fill="#f5f5f5">Usuario = U2</text>
<text text-anchor="middle" x="146.5" y="-31.54" font-family="Times,serif" font-size="5.00" fill="#f5f5f5">Activo = A13</text>
<text text-anchor="middle" x="146.5" y="-25.54" font-family="Times,serif" font-size="5.00" fill="#f5f5f5">Tiempo renta = 2</text>
</g>
<!-- n1&#45;&gt;n2 -->
<g id="edge1" class="edge">
<title>n1&#45;&gt;n2</title>
<path fill="none" stroke="#ff5722" d="M75.02,-38.54C83.47,-38.54 92.54,-38.54 101.27,-38.54"/>
<polygon fill="#ff5722" stroke="#ff5722" points="101.3,-42.04 111.3,-38.54 101.3,-35.04 101.3,-42.04"/>
</g>
<!-- n1&#45;&gt;n2 -->
<g id="edge4" class="edge">
<title>n1:s&#45;&gt;n2:s</title>
<path fill="none" stroke="#ff5722" d="M37.5,-18.54C37.5,2.37 118.73,5.23 140.94,-9.97"/>
<polygon fill="#ff5722" stroke="#ff5722" points="138.13,-12.05 146.5,-18.54 144,-8.25 138.13,-12.05"/>
</g>
<!-- n2&#45;&gt;n1 -->
<g id="edge2" class="edge">
<title>n2&#45;&gt;n1</title>
<path fill="none" stroke="#ff5722" d="M111.3,-38.54C102.99,-38.54 93.95,-38.54 85.16,-38.54"/>
<polygon fill="#ff5722" stroke="#ff5722" points="85.02,-35.04 75.02,-38.54 85.02,-42.04 85.02,-35.04"/>
</g>
<!-- n2&#45;&gt;n1 -->
<g id="edge3" class="edge">
<title>n2:n&#45;&gt;n1:n</title>
<path fill="none" stroke="#ff5722" d="M146.5,-58.54C146.5,-79.45 65.27,-82.31 43.06,-67.12"/>
<polygon fill="#ff5722" stroke="#ff5722" points="45.87,-65.03 37.5,-58.54 40,-68.84 45.87,-65.03"/>
</g>
</g>
</svg>
