<?xml version="1.0" encoding="UTF-8" standalone="no"?>
<!DOCTYPE svg PUBLIC "-//W3C//DTD SVG 1.1//EN"
 "http://www.w3.org/Graphics/SVG/1.1/DTD/svg11.dtd">
<!-- Generated by graphviz version 2.43.0 (0)
 -->
<!-- Title: G Pages: 1 -->
<svg width="504pt" height="146pt"
 viewBox="0.00 0.00 503.50 146.25" xmlns="http://www.w3.org/2000/svg" xmlns:xlink="http://www.w3.org/1999/xlink">
<g id="graph0" class="graph" transform="scale(1 1) rotate(0) translate(4 142.25)">
<title>G</title>
<polygon fill="#f5f5f5" stroke="transparent" points="-4,4 -4,-142.25 499.5,-142.25 499.5,4 -4,4"/>
<text text-anchor="middle" x="247.75" y="-123.05" font-family="Times,serif" font-size="14.00">Historial de transacciones</text>
<!-- n1 -->
<g id="node1" class="node">
<title>n1</title>
<polygon fill="#004488" stroke="transparent" points="73,-79.63 0,-79.63 0,-35.63 73,-35.63 73,-79.63"/>
<text text-anchor="middle" x="36.5" y="-71.63" font-family="Times,serif" font-size="5.00" fill="#f5f5f5">id = frod45a6617mv0d</text>
<text text-anchor="middle" x="36.5" y="-65.63" font-family="Times,serif" font-size="5.00" fill="#f5f5f5">Tipo = Renta</text>
<text text-anchor="middle" x="36.5" y="-59.63" font-family="Times,serif" font-size="5.00" fill="#f5f5f5">Usuario = U4</text>
<text text-anchor="middle" x="36.5" y="-53.63" font-family="Times,serif" font-size="5.00" fill="#f5f5f5">Activo = A11</text>
<text text-anchor="middle" x="36.5" y="-47.63" font-family="Times,serif" font-size="5.00" fill="#f5f5f5">Tiempo renta = 1</text>
<text text-anchor="middle" x="36.5" y="-41.63" font-family="Times,serif" font-size="5.00" fill="#f5f5f5">Fecha = 16/12/2024</text>
</g>
<!-- n2 -->
<g id="node2" class="node">
<title>n2</title>
<polygon fill="#004488" stroke="transparent" points="183.5,-79.63 109.5,-79.63 109.5,-35.63 183.5,-35.63 183.5,-79.63"/>
<text text-anchor="middle" x="146.5" y="-71.63" font-family="Times,serif" font-size="5.00" fill="#f5f5f5">id = s9gdsb52we12w6f</text>
<text text-anchor="middle" x="146.5" y="-65.63" font-family="Times,serif" font-size="5.00" fill="#f5f5f5">Tipo = Renta</text>
<text text-anchor="middle" x="146.5" y="-59.63" font-family="Times,serif" font-size="5.00" fill="#f5f5f5">Usuario = U5</text>
<text text-anchor="middle" x="146.5" y="-53.63" font-family="Times,serif" font-size="5.00" fill="#f5f5f5">Activo = A32</text>
<text text-anchor="middle" x="146.5" y="-47.63" font-family="Times,serif" font-size="5.00" fill="#f5f5f5">Tiempo renta = 3</text>
<text text-anchor="middle" x="146.5" y="-41.63" font-family="Times,serif" font-size="5.00" fill="#f5f5f5">Fecha = 16/12/2024</text>
</g>
<!-- n1&#45;&gt;n2 -->
<g id="edge1" class="edge">
<title>n1&#45;&gt;n2</title>
<path fill="none" stroke="#ff5722" d="M73.02,-42.99C81.85,-41.21 90.68,-40.71 99.51,-41.48"/>
<polygon fill="#ff5722" stroke="#ff5722" points="99.08,-44.95 109.47,-42.89 100.06,-38.02 99.08,-44.95"/>
</g>
<!-- n5 -->
<g id="node5" class="node">
<title>n5</title>
<polygon fill="#004488" stroke="transparent" points="495.5,-79.63 427.5,-79.63 427.5,-35.63 495.5,-35.63 495.5,-79.63"/>
<text text-anchor="middle" x="461.5" y="-71.63" font-family="Times,serif" font-size="5.00" fill="#f5f5f5">id = j6ielcs52c1hx11</text>
<text text-anchor="middle" x="461.5" y="-65.63" font-family="Times,serif" font-size="5.00" fill="#f5f5f5">Tipo = Renta</text>
<text text-anchor="middle" x="461.5" y="-59.63" font-family="Times,serif" font-size="5.00" fill="#f5f5f5">Usuario = U1</text>
<text text-anchor="middle" x="461.5" y="-53.63" font-family="Times,serif" font-size="5.00" fill="#f5f5f5">Activo = A14</text>
<text text-anchor="middle" x="461.5" y="-47.63" font-family="Times,serif" font-size="5.00" fill="#f5f5f5">Tiempo renta = 5</text>
<text text-anchor="middle" x="461.5" y="-41.63" font-family="Times,serif" font-size="5.00" fill="#f5f5f5">Fecha = 16/12/2024</text>
</g>
<!-- n1&#45;&gt;n5 -->
<g id="edge10" class="edge">
<title>n1:s&#45;&gt;n5:s</title>
<path fill="none" stroke="#ff5722" d="M36.5,-35.63C36.5,8.46 406.93,11.39 456.13,-26.84"/>
<polygon fill="#ff5722" stroke="#ff5722" points="453.3,-28.92 461.5,-35.63 459.27,-25.27 453.3,-28.92"/>
</g>
<!-- n2&#45;&gt;n1 -->
<g id="edge3" class="edge">
<title>n2&#45;&gt;n1</title>
<path fill="none" stroke="#ff5722" d="M109.47,-72.36C100.65,-74.1 91.82,-74.55 82.99,-73.73"/>
<polygon fill="#ff5722" stroke="#ff5722" points="83.43,-70.26 73.02,-72.26 82.41,-77.18 83.43,-70.26"/>
</g>
<!-- n3 -->
<g id="node3" class="node">
<title>n3</title>
<polygon fill="#004488" stroke="transparent" points="287.5,-79.63 219.5,-79.63 219.5,-35.63 287.5,-35.63 287.5,-79.63"/>
<text text-anchor="middle" x="253.5" y="-71.63" font-family="Times,serif" font-size="5.00" fill="#f5f5f5">id = j6ielcs52c1hx11</text>
<text text-anchor="middle" x="253.5" y="-65.63" font-family="Times,serif" font-size="5.00" fill="#f5f5f5">Tipo = Renta</text>
<text text-anchor="middle" x="253.5" y="-59.63" font-family="Times,serif" font-size="5.00" fill="#f5f5f5">Usuario = U5</text>
<text text-anchor="middle" x="253.5" y="-53.63" font-family="Times,serif" font-size="5.00" fill="#f5f5f5">Activo = A14</text>
<text text-anchor="middle" x="253.5" y="-47.63" font-family="Times,serif" font-size="5.00" fill="#f5f5f5">Tiempo renta = 4</text>
<text text-anchor="middle" x="253.5" y="-41.63" font-family="Times,serif" font-size="5.00" fill="#f5f5f5">Fecha = 16/12/2024</text>
</g>
<!-- n2&#45;&gt;n3 -->
<g id="edge2" class="edge">
<title>n2&#45;&gt;n3</title>
<path fill="none" stroke="#ff5722" d="M183.7,-42.66C192.26,-41.05 200.81,-40.71 209.37,-41.63"/>
<polygon fill="#ff5722" stroke="#ff5722" points="208.98,-45.12 219.42,-43.3 210.13,-38.21 208.98,-45.12"/>
</g>
<!-- n3&#45;&gt;n2 -->
<g id="edge5" class="edge">
<title>n3&#45;&gt;n2</title>
<path fill="none" stroke="#ff5722" d="M219.42,-71.95C210.86,-73.87 202.3,-74.52 193.75,-73.9"/>
<polygon fill="#ff5722" stroke="#ff5722" points="194.07,-70.41 183.7,-72.59 193.16,-77.35 194.07,-70.41"/>
</g>
<!-- n4 -->
<g id="node4" class="node">
<title>n4</title>
<polygon fill="#004488" stroke="transparent" points="391.5,-79.63 323.5,-79.63 323.5,-35.63 391.5,-35.63 391.5,-79.63"/>
<text text-anchor="middle" x="357.5" y="-71.63" font-family="Times,serif" font-size="5.00" fill="#f5f5f5">id = j6ielcs52c1hx11</text>
<text text-anchor="middle" x="357.5" y="-65.63" font-family="Times,serif" font-size="5.00" fill="#f5f5f5">Tipo = Devolucion</text>
<text text-anchor="middle" x="357.5" y="-59.63" font-family="Times,serif" font-size="5.00" fill="#f5f5f5">Usuario = U5</text>
<text text-anchor="middle" x="357.5" y="-53.63" font-family="Times,serif" font-size="5.00" fill="#f5f5f5">Activo = A14</text>
<text text-anchor="middle" x="357.5" y="-47.63" font-family="Times,serif" font-size="5.00" fill="#f5f5f5">Tiempo renta = 14</text>
<text text-anchor="middle" x="357.5" y="-41.63" font-family="Times,serif" font-size="5.00" fill="#f5f5f5">Fecha = 16/12/2024</text>
</g>
<!-- n3&#45;&gt;n4 -->
<g id="edge4" class="edge">
<title>n3&#45;&gt;n4</title>
<path fill="none" stroke="#ff5722" d="M287.62,-43.08C296.19,-41.21 304.76,-40.68 313.32,-41.5"/>
<polygon fill="#ff5722" stroke="#ff5722" points="312.96,-44.99 323.38,-43.08 314.04,-38.07 312.96,-44.99"/>
</g>
<!-- n4&#45;&gt;n3 -->
<g id="edge7" class="edge">
<title>n4&#45;&gt;n3</title>
<path fill="none" stroke="#ff5722" d="M323.38,-72.18C314.81,-74.04 306.25,-74.57 297.68,-73.75"/>
<polygon fill="#ff5722" stroke="#ff5722" points="298.05,-70.27 287.62,-72.18 296.96,-77.18 298.05,-70.27"/>
</g>
<!-- n4&#45;&gt;n5 -->
<g id="edge6" class="edge">
<title>n4&#45;&gt;n5</title>
<path fill="none" stroke="#ff5722" d="M391.62,-43.08C400.19,-41.21 408.76,-40.68 417.32,-41.5"/>
<polygon fill="#ff5722" stroke="#ff5722" points="416.96,-44.99 427.38,-43.08 418.04,-38.07 416.96,-44.99"/>
</g>
<!-- n5&#45;&gt;n1 -->
<g id="edge9" class="edge">
<title>n5:n&#45;&gt;n1:n</title>
<path fill="none" stroke="#ff5722" d="M461.5,-79.63C461.5,-123.71 91.07,-126.64 41.87,-88.41"/>
<polygon fill="#ff5722" stroke="#ff5722" points="44.7,-86.33 36.5,-79.63 38.73,-89.98 44.7,-86.33"/>
</g>
<!-- n5&#45;&gt;n4 -->
<g id="edge8" class="edge">
<title>n5&#45;&gt;n4</title>
<path fill="none" stroke="#ff5722" d="M427.38,-72.18C418.81,-74.04 410.25,-74.57 401.68,-73.75"/>
<polygon fill="#ff5722" stroke="#ff5722" points="402.05,-70.27 391.62,-72.18 400.96,-77.18 402.05,-70.27"/>
</g>
</g>
</svg>
