<?xml version="1.0" encoding="UTF-8" standalone="no"?>
<!DOCTYPE svg PUBLIC "-//W3C//DTD SVG 1.1//EN"
 "http://www.w3.org/Graphics/SVG/1.1/DTD/svg11.dtd">
<!-- Generated by graphviz version 2.43.0 (0)
 -->
<!-- Title: G Pages: 1 -->
<svg width="511pt" height="147pt"
 viewBox="0.00 0.00 511.00 147.24" xmlns="http://www.w3.org/2000/svg" xmlns:xlink="http://www.w3.org/1999/xlink">
<g id="graph0" class="graph" transform="scale(1 1) rotate(0) translate(4 143.24)">
<title>G</title>
<polygon fill="#f5f5f5" stroke="transparent" points="-4,4 -4,-143.24 507,-143.24 507,4 -4,4"/>
<text text-anchor="middle" x="251.5" y="-124.04" font-family="Times,serif" font-size="14.00">Historial de Transacciones ordenadas Descendentemente</text>
<!-- n1 -->
<g id="node1" class="node">
<title>n1</title>
<polygon fill="#004488" stroke="transparent" points="98,-82.12 0,-82.12 0,-34.12 98,-34.12 98,-82.12"/>
<text text-anchor="middle" x="49" y="-72.52" font-family="Times,serif" font-size="7.00" fill="#f5f5f5">id = pnnm9fs582205rx</text>
<text text-anchor="middle" x="49" y="-64.52" font-family="Times,serif" font-size="7.00" fill="#f5f5f5">Tipo = Renta</text>
<text text-anchor="middle" x="49" y="-56.52" font-family="Times,serif" font-size="7.00" fill="#f5f5f5">Usuario = U2</text>
<text text-anchor="middle" x="49" y="-48.52" font-family="Times,serif" font-size="7.00" fill="#f5f5f5">Activo = A2</text>
<text text-anchor="middle" x="49" y="-40.52" font-family="Times,serif" font-size="7.00" fill="#f5f5f5">Tiempo renta = 2</text>
</g>
<!-- n2 -->
<g id="node2" class="node">
<title>n2</title>
<polygon fill="#004488" stroke="transparent" points="235.5,-82.12 134.5,-82.12 134.5,-34.12 235.5,-34.12 235.5,-82.12"/>
<text text-anchor="middle" x="185" y="-72.52" font-family="Times,serif" font-size="7.00" fill="#f5f5f5">id = a2c79uka54jmhk5</text>
<text text-anchor="middle" x="185" y="-64.52" font-family="Times,serif" font-size="7.00" fill="#f5f5f5">Tipo = Renta</text>
<text text-anchor="middle" x="185" y="-56.52" font-family="Times,serif" font-size="7.00" fill="#f5f5f5">Usuario = U1</text>
<text text-anchor="middle" x="185" y="-48.52" font-family="Times,serif" font-size="7.00" fill="#f5f5f5">Activo = A1</text>
<text text-anchor="middle" x="185" y="-40.52" font-family="Times,serif" font-size="7.00" fill="#f5f5f5">Tiempo renta = 1</text>
</g>
<!-- n1&#45;&gt;n2 -->
<g id="edge1" class="edge">
<title>n1&#45;&gt;n2</title>
<path fill="none" stroke="#ff5722" d="M98.14,-41.5C106.84,-40.23 115.54,-39.83 124.23,-40.32"/>
<polygon fill="#ff5722" stroke="#ff5722" points="124.16,-43.83 134.45,-41.3 124.83,-36.86 124.16,-43.83"/>
</g>
<!-- n4 -->
<g id="node4" class="node">
<title>n4</title>
<polygon fill="#004488" stroke="transparent" points="503,-82.12 409,-82.12 409,-34.12 503,-34.12 503,-82.12"/>
<text text-anchor="middle" x="456" y="-72.52" font-family="Times,serif" font-size="7.00" fill="#f5f5f5">id = 51f88i9p0lo66ox</text>
<text text-anchor="middle" x="456" y="-64.52" font-family="Times,serif" font-size="7.00" fill="#f5f5f5">Tipo = Renta</text>
<text text-anchor="middle" x="456" y="-56.52" font-family="Times,serif" font-size="7.00" fill="#f5f5f5">Usuario = U4</text>
<text text-anchor="middle" x="456" y="-48.52" font-family="Times,serif" font-size="7.00" fill="#f5f5f5">Activo = A4</text>
<text text-anchor="middle" x="456" y="-40.52" font-family="Times,serif" font-size="7.00" fill="#f5f5f5">Tiempo renta = 4</text>
</g>
<!-- n1&#45;&gt;n4 -->
<g id="edge8" class="edge">
<title>n1:s&#45;&gt;n4:s</title>
<path fill="none" stroke="#ff5722" d="M49,-34.12C49,8.01 402.26,10.89 450.55,-25.48"/>
<polygon fill="#ff5722" stroke="#ff5722" points="447.71,-27.52 456,-34.12 453.63,-23.79 447.71,-27.52"/>
</g>
<!-- n2&#45;&gt;n1 -->
<g id="edge3" class="edge">
<title>n2&#45;&gt;n1</title>
<path fill="none" stroke="#ff5722" d="M134.45,-74.93C125.75,-76.11 117.05,-76.41 108.35,-75.83"/>
<polygon fill="#ff5722" stroke="#ff5722" points="108.46,-72.32 98.14,-74.73 107.71,-79.28 108.46,-72.32"/>
</g>
<!-- n3 -->
<g id="node3" class="node">
<title>n3</title>
<polygon fill="#004488" stroke="transparent" points="372.5,-82.12 271.5,-82.12 271.5,-34.12 372.5,-34.12 372.5,-82.12"/>
<text text-anchor="middle" x="322" y="-72.52" font-family="Times,serif" font-size="7.00" fill="#f5f5f5">id = 6ouk351m8v7spv2</text>
<text text-anchor="middle" x="322" y="-64.52" font-family="Times,serif" font-size="7.00" fill="#f5f5f5">Tipo = Renta</text>
<text text-anchor="middle" x="322" y="-56.52" font-family="Times,serif" font-size="7.00" fill="#f5f5f5">Usuario = U3</text>
<text text-anchor="middle" x="322" y="-48.52" font-family="Times,serif" font-size="7.00" fill="#f5f5f5">Activo = A3</text>
<text text-anchor="middle" x="322" y="-40.52" font-family="Times,serif" font-size="7.00" fill="#f5f5f5">Tiempo renta = 3</text>
</g>
<!-- n2&#45;&gt;n3 -->
<g id="edge2" class="edge">
<title>n2&#45;&gt;n3</title>
<path fill="none" stroke="#ff5722" d="M235.57,-41.35C244.15,-40.17 252.72,-39.84 261.29,-40.35"/>
<polygon fill="#ff5722" stroke="#ff5722" points="261.06,-43.85 271.36,-41.34 261.75,-36.88 261.06,-43.85"/>
</g>
<!-- n3&#45;&gt;n2 -->
<g id="edge5" class="edge">
<title>n3&#45;&gt;n2</title>
<path fill="none" stroke="#ff5722" d="M271.36,-74.89C262.78,-76.07 254.21,-76.4 245.64,-75.88"/>
<polygon fill="#ff5722" stroke="#ff5722" points="245.87,-72.39 235.57,-74.89 245.18,-79.35 245.87,-72.39"/>
</g>
<!-- n3&#45;&gt;n4 -->
<g id="edge4" class="edge">
<title>n3&#45;&gt;n4</title>
<path fill="none" stroke="#ff5722" d="M372.51,-41.21C381.18,-40.06 389.86,-39.82 398.53,-40.48"/>
<polygon fill="#ff5722" stroke="#ff5722" points="398.37,-43.99 408.71,-41.68 399.19,-37.04 398.37,-43.99"/>
</g>
<!-- n4&#45;&gt;n1 -->
<g id="edge7" class="edge">
<title>n4:n&#45;&gt;n1:n</title>
<path fill="none" stroke="#ff5722" d="M456,-82.12C456,-124.25 102.74,-127.13 54.45,-90.76"/>
<polygon fill="#ff5722" stroke="#ff5722" points="57.29,-88.71 49,-82.12 51.37,-92.44 57.29,-88.71"/>
</g>
<!-- n4&#45;&gt;n3 -->
<g id="edge6" class="edge">
<title>n4&#45;&gt;n3</title>
<path fill="none" stroke="#ff5722" d="M408.71,-74.56C400.04,-75.93 391.37,-76.4 382.69,-75.96"/>
<polygon fill="#ff5722" stroke="#ff5722" points="382.79,-72.45 372.51,-75.03 382.15,-79.42 382.79,-72.45"/>
</g>
</g>
</svg>
