<?xml version="1.0" encoding="UTF-8" standalone="no"?>
<!DOCTYPE svg PUBLIC "-//W3C//DTD SVG 1.1//EN"
 "http://www.w3.org/Graphics/SVG/1.1/DTD/svg11.dtd">
<!-- Generated by graphviz version 2.43.0 (0)
 -->
<!-- Title: G Pages: 1 -->
<svg width="504pt" height="146pt"
 viewBox="0.00 0.00 504.00 146.25" xmlns="http://www.w3.org/2000/svg" xmlns:xlink="http://www.w3.org/1999/xlink">
<g id="graph0" class="graph" transform="scale(1 1) rotate(0) translate(4 142.25)">
<title>G</title>
<polygon fill="#f5f5f5" stroke="transparent" points="-4,4 -4,-142.25 500,-142.25 500,4 -4,4"/>
<text text-anchor="middle" x="248" y="-123.05" font-family="Times,serif" font-size="14.00">Historial de transacciones ordenadas ascendentemente</text>
<!-- n1 -->
<g id="node1" class="node">
<title>n1</title>
<polygon fill="#004488" stroke="transparent" points="68,-79.63 0,-79.63 0,-35.63 68,-35.63 68,-79.63"/>
<text text-anchor="middle" x="34" y="-71.63" font-family="Times,serif" font-size="5.00" fill="#f5f5f5">id = j6ielcs52c1hx11</text>
<text text-anchor="middle" x="34" y="-65.63" font-family="Times,serif" font-size="5.00" fill="#f5f5f5">Tipo = Renta</text>
<text text-anchor="middle" x="34" y="-59.63" font-family="Times,serif" font-size="5.00" fill="#f5f5f5">Usuario = U5</text>
<text text-anchor="middle" x="34" y="-53.63" font-family="Times,serif" font-size="5.00" fill="#f5f5f5">Activo = A14</text>
<text text-anchor="middle" x="34" y="-47.63" font-family="Times,serif" font-size="5.00" fill="#f5f5f5">Tiempo renta = 4</text>
<text text-anchor="middle" x="34" y="-41.63" font-family="Times,serif" font-size="5.00" fill="#f5f5f5">Fecha = 16/12/2024</text>
</g>
<!-- n2 -->
<g id="node2" class="node">
<title>n2</title>
<polygon fill="#004488" stroke="transparent" points="172,-79.63 104,-79.63 104,-35.63 172,-35.63 172,-79.63"/>
<text text-anchor="middle" x="138" y="-71.63" font-family="Times,serif" font-size="5.00" fill="#f5f5f5">id = j6ielcs52c1hx11</text>
<text text-anchor="middle" x="138" y="-65.63" font-family="Times,serif" font-size="5.00" fill="#f5f5f5">Tipo = Devolucion</text>
<text text-anchor="middle" x="138" y="-59.63" font-family="Times,serif" font-size="5.00" fill="#f5f5f5">Usuario = U5</text>
<text text-anchor="middle" x="138" y="-53.63" font-family="Times,serif" font-size="5.00" fill="#f5f5f5">Activo = A14</text>
<text text-anchor="middle" x="138" y="-47.63" font-family="Times,serif" font-size="5.00" fill="#f5f5f5">Tiempo renta = 14</text>
<text text-anchor="middle" x="138" y="-41.63" font-family="Times,serif" font-size="5.00" fill="#f5f5f5">Fecha = 16/12/2024</text>
</g>
<!-- n1&#45;&gt;n2 -->
<g id="edge1" class="edge">
<title>n1&#45;&gt;n2</title>
<path fill="none" stroke="#ff5722" d="M68.12,-43.08C76.69,-41.21 85.26,-40.68 93.82,-41.5"/>
<polygon fill="#ff5722" stroke="#ff5722" points="93.46,-44.99 103.88,-43.08 94.54,-38.07 93.46,-44.99"/>
</g>
<!-- n5 -->
<g id="node5" class="node">
<title>n5</title>
<polygon fill="#004488" stroke="transparent" points="496,-79.63 422,-79.63 422,-35.63 496,-35.63 496,-79.63"/>
<text text-anchor="middle" x="459" y="-71.63" font-family="Times,serif" font-size="5.00" fill="#f5f5f5">id = s9gdsb52we12w6f</text>
<text text-anchor="middle" x="459" y="-65.63" font-family="Times,serif" font-size="5.00" fill="#f5f5f5">Tipo = Renta</text>
<text text-anchor="middle" x="459" y="-59.63" font-family="Times,serif" font-size="5.00" fill="#f5f5f5">Usuario = U5</text>
<text text-anchor="middle" x="459" y="-53.63" font-family="Times,serif" font-size="5.00" fill="#f5f5f5">Activo = A32</text>
<text text-anchor="middle" x="459" y="-47.63" font-family="Times,serif" font-size="5.00" fill="#f5f5f5">Tiempo renta = 3</text>
<text text-anchor="middle" x="459" y="-41.63" font-family="Times,serif" font-size="5.00" fill="#f5f5f5">Fecha = 16/12/2024</text>
</g>
<!-- n1&#45;&gt;n5 -->
<g id="edge10" class="edge">
<title>n1:s&#45;&gt;n5:s</title>
<path fill="none" stroke="#ff5722" d="M34,-35.63C34,8.46 404.43,11.39 453.63,-26.84"/>
<polygon fill="#ff5722" stroke="#ff5722" points="450.8,-28.92 459,-35.63 456.77,-25.27 450.8,-28.92"/>
</g>
<!-- n2&#45;&gt;n1 -->
<g id="edge3" class="edge">
<title>n2&#45;&gt;n1</title>
<path fill="none" stroke="#ff5722" d="M103.88,-72.18C95.31,-74.04 86.75,-74.57 78.18,-73.75"/>
<polygon fill="#ff5722" stroke="#ff5722" points="78.55,-70.27 68.12,-72.18 77.46,-77.18 78.55,-70.27"/>
</g>
<!-- n3 -->
<g id="node3" class="node">
<title>n3</title>
<polygon fill="#004488" stroke="transparent" points="281.5,-79.63 208.5,-79.63 208.5,-35.63 281.5,-35.63 281.5,-79.63"/>
<text text-anchor="middle" x="245" y="-71.63" font-family="Times,serif" font-size="5.00" fill="#f5f5f5">id = frod45a6617mv0d</text>
<text text-anchor="middle" x="245" y="-65.63" font-family="Times,serif" font-size="5.00" fill="#f5f5f5">Tipo = Renta</text>
<text text-anchor="middle" x="245" y="-59.63" font-family="Times,serif" font-size="5.00" fill="#f5f5f5">Usuario = U4</text>
<text text-anchor="middle" x="245" y="-53.63" font-family="Times,serif" font-size="5.00" fill="#f5f5f5">Activo = A11</text>
<text text-anchor="middle" x="245" y="-47.63" font-family="Times,serif" font-size="5.00" fill="#f5f5f5">Tiempo renta = 1</text>
<text text-anchor="middle" x="245" y="-41.63" font-family="Times,serif" font-size="5.00" fill="#f5f5f5">Fecha = 16/12/2024</text>
</g>
<!-- n2&#45;&gt;n3 -->
<g id="edge2" class="edge">
<title>n2&#45;&gt;n3</title>
<path fill="none" stroke="#ff5722" d="M172.27,-43.26C180.92,-41.34 189.56,-40.72 198.21,-41.39"/>
<polygon fill="#ff5722" stroke="#ff5722" points="197.97,-44.89 208.35,-42.76 198.91,-37.95 197.97,-44.89"/>
</g>
<!-- n3&#45;&gt;n2 -->
<g id="edge5" class="edge">
<title>n3&#45;&gt;n2</title>
<path fill="none" stroke="#ff5722" d="M208.35,-72.49C199.71,-74.17 191.06,-74.56 182.42,-73.65"/>
<polygon fill="#ff5722" stroke="#ff5722" points="182.71,-70.15 172.27,-72 181.58,-77.06 182.71,-70.15"/>
</g>
<!-- n4 -->
<g id="node4" class="node">
<title>n4</title>
<polygon fill="#004488" stroke="transparent" points="386,-79.63 318,-79.63 318,-35.63 386,-35.63 386,-79.63"/>
<text text-anchor="middle" x="352" y="-71.63" font-family="Times,serif" font-size="5.00" fill="#f5f5f5">id = j6ielcs52c1hx11</text>
<text text-anchor="middle" x="352" y="-65.63" font-family="Times,serif" font-size="5.00" fill="#f5f5f5">Tipo = Renta</text>
<text text-anchor="middle" x="352" y="-59.63" font-family="Times,serif" font-size="5.00" fill="#f5f5f5">Usuario = U1</text>
<text text-anchor="middle" x="352" y="-53.63" font-family="Times,serif" font-size="5.00" fill="#f5f5f5">Activo = A14</text>
<text text-anchor="middle" x="352" y="-47.63" font-family="Times,serif" font-size="5.00" fill="#f5f5f5">Tiempo renta = 5</text>
<text text-anchor="middle" x="352" y="-41.63" font-family="Times,serif" font-size="5.00" fill="#f5f5f5">Fecha = 16/12/2024</text>
</g>
<!-- n3&#45;&gt;n4 -->
<g id="edge4" class="edge">
<title>n3&#45;&gt;n4</title>
<path fill="none" stroke="#ff5722" d="M281.78,-42.74C290.55,-41.05 299.32,-40.69 308.09,-41.66"/>
<polygon fill="#ff5722" stroke="#ff5722" points="307.55,-45.11 317.99,-43.32 308.7,-38.21 307.55,-45.11"/>
</g>
<!-- n4&#45;&gt;n3 -->
<g id="edge7" class="edge">
<title>n4&#45;&gt;n3</title>
<path fill="none" stroke="#ff5722" d="M317.99,-71.94C309.31,-73.89 300.64,-74.53 291.96,-73.88"/>
<polygon fill="#ff5722" stroke="#ff5722" points="292.16,-70.37 281.78,-72.52 291.23,-77.31 292.16,-70.37"/>
</g>
<!-- n4&#45;&gt;n5 -->
<g id="edge6" class="edge">
<title>n4&#45;&gt;n5</title>
<path fill="none" stroke="#ff5722" d="M386.27,-43.26C394.78,-41.37 403.29,-40.74 411.8,-41.36"/>
<polygon fill="#ff5722" stroke="#ff5722" points="411.42,-44.83 421.78,-42.66 412.32,-37.89 411.42,-44.83"/>
</g>
<!-- n5&#45;&gt;n1 -->
<g id="edge9" class="edge">
<title>n5:n&#45;&gt;n1:n</title>
<path fill="none" stroke="#ff5722" d="M459,-79.63C459,-123.71 88.57,-126.64 39.37,-88.41"/>
<polygon fill="#ff5722" stroke="#ff5722" points="42.2,-86.33 34,-79.63 36.23,-89.98 42.2,-86.33"/>
</g>
<!-- n5&#45;&gt;n4 -->
<g id="edge8" class="edge">
<title>n5&#45;&gt;n4</title>
<path fill="none" stroke="#ff5722" d="M421.78,-72.6C413.28,-74.2 404.77,-74.54 396.26,-73.63"/>
<polygon fill="#ff5722" stroke="#ff5722" points="396.71,-70.16 386.27,-72 395.57,-77.07 396.71,-70.16"/>
</g>
</g>
</svg>
