<?xml version="1.0" encoding="UTF-8" standalone="no"?>
<!DOCTYPE svg PUBLIC "-//W3C//DTD SVG 1.1//EN"
 "http://www.w3.org/Graphics/SVG/1.1/DTD/svg11.dtd">
<!-- Generated by graphviz version 2.43.0 (0)
 -->
<!-- Title: G Pages: 1 -->
<svg width="512pt" height="147pt"
 viewBox="0.00 0.00 511.50 146.73" xmlns="http://www.w3.org/2000/svg" xmlns:xlink="http://www.w3.org/1999/xlink">
<g id="graph0" class="graph" transform="scale(1 1) rotate(0) translate(4 142.73)">
<title>G</title>
<polygon fill="#f5f5f5" stroke="transparent" points="-4,4 -4,-142.73 507.5,-142.73 507.5,4 -4,4"/>
<text text-anchor="middle" x="251.75" y="-123.53" font-family="Times,serif" font-size="14.00">Historial de Transacciones </text>
<!-- n1 -->
<g id="node1" class="node">
<title>n1</title>
<polygon fill="#004488" stroke="transparent" points="98,-81.87 0,-81.87 0,-33.87 98,-33.87 98,-81.87"/>
<text text-anchor="middle" x="49" y="-72.27" font-family="Times,serif" font-size="7.00" fill="#f5f5f5">id = pnnm9fs582205rx</text>
<text text-anchor="middle" x="49" y="-64.27" font-family="Times,serif" font-size="7.00" fill="#f5f5f5">Tipo = Renta</text>
<text text-anchor="middle" x="49" y="-56.27" font-family="Times,serif" font-size="7.00" fill="#f5f5f5">Usuario = U2</text>
<text text-anchor="middle" x="49" y="-48.27" font-family="Times,serif" font-size="7.00" fill="#f5f5f5">Activo = A2</text>
<text text-anchor="middle" x="49" y="-40.27" font-family="Times,serif" font-size="7.00" fill="#f5f5f5">Tiempo renta = 2</text>
</g>
<!-- n2 -->
<g id="node2" class="node">
<title>n2</title>
<polygon fill="#004488" stroke="transparent" points="235.5,-81.87 134.5,-81.87 134.5,-33.87 235.5,-33.87 235.5,-81.87"/>
<text text-anchor="middle" x="185" y="-72.27" font-family="Times,serif" font-size="7.00" fill="#f5f5f5">id = a2c79uka54jmhk5</text>
<text text-anchor="middle" x="185" y="-64.27" font-family="Times,serif" font-size="7.00" fill="#f5f5f5">Tipo = Renta</text>
<text text-anchor="middle" x="185" y="-56.27" font-family="Times,serif" font-size="7.00" fill="#f5f5f5">Usuario = U1</text>
<text text-anchor="middle" x="185" y="-48.27" font-family="Times,serif" font-size="7.00" fill="#f5f5f5">Activo = A1</text>
<text text-anchor="middle" x="185" y="-40.27" font-family="Times,serif" font-size="7.00" fill="#f5f5f5">Tiempo renta = 1</text>
</g>
<!-- n1&#45;&gt;n2 -->
<g id="edge1" class="edge">
<title>n1&#45;&gt;n2</title>
<path fill="none" stroke="#ff5722" d="M98.14,-41.25C106.84,-39.97 115.54,-39.58 124.23,-40.07"/>
<polygon fill="#ff5722" stroke="#ff5722" points="124.16,-43.58 134.45,-41.05 124.83,-36.61 124.16,-43.58"/>
</g>
<!-- n4 -->
<g id="node4" class="node">
<title>n4</title>
<polygon fill="#004488" stroke="transparent" points="503.5,-81.87 402.5,-81.87 402.5,-33.87 503.5,-33.87 503.5,-81.87"/>
<text text-anchor="middle" x="453" y="-72.27" font-family="Times,serif" font-size="7.00" fill="#f5f5f5">id = 6ouk351m8v7spv2</text>
<text text-anchor="middle" x="453" y="-64.27" font-family="Times,serif" font-size="7.00" fill="#f5f5f5">Tipo = Renta</text>
<text text-anchor="middle" x="453" y="-56.27" font-family="Times,serif" font-size="7.00" fill="#f5f5f5">Usuario = U3</text>
<text text-anchor="middle" x="453" y="-48.27" font-family="Times,serif" font-size="7.00" fill="#f5f5f5">Activo = A3</text>
<text text-anchor="middle" x="453" y="-40.27" font-family="Times,serif" font-size="7.00" fill="#f5f5f5">Tiempo renta = 3</text>
</g>
<!-- n1&#45;&gt;n4 -->
<g id="edge8" class="edge">
<title>n1:s&#45;&gt;n4:s</title>
<path fill="none" stroke="#ff5722" d="M49,-33.87C49,7.95 399.65,10.81 447.59,-25.29"/>
<polygon fill="#ff5722" stroke="#ff5722" points="444.71,-27.27 453,-33.87 450.63,-23.54 444.71,-27.27"/>
</g>
<!-- n2&#45;&gt;n1 -->
<g id="edge3" class="edge">
<title>n2&#45;&gt;n1</title>
<path fill="none" stroke="#ff5722" d="M134.45,-74.68C125.75,-75.86 117.05,-76.16 108.35,-75.58"/>
<polygon fill="#ff5722" stroke="#ff5722" points="108.46,-72.07 98.14,-74.48 107.71,-79.03 108.46,-72.07"/>
</g>
<!-- n3 -->
<g id="node3" class="node">
<title>n3</title>
<polygon fill="#004488" stroke="transparent" points="366,-81.87 272,-81.87 272,-33.87 366,-33.87 366,-81.87"/>
<text text-anchor="middle" x="319" y="-72.27" font-family="Times,serif" font-size="7.00" fill="#f5f5f5">id = 51f88i9p0lo66ox</text>
<text text-anchor="middle" x="319" y="-64.27" font-family="Times,serif" font-size="7.00" fill="#f5f5f5">Tipo = Renta</text>
<text text-anchor="middle" x="319" y="-56.27" font-family="Times,serif" font-size="7.00" fill="#f5f5f5">Usuario = U4</text>
<text text-anchor="middle" x="319" y="-48.27" font-family="Times,serif" font-size="7.00" fill="#f5f5f5">Activo = A4</text>
<text text-anchor="middle" x="319" y="-40.27" font-family="Times,serif" font-size="7.00" fill="#f5f5f5">Tiempo renta = 4</text>
</g>
<!-- n2&#45;&gt;n3 -->
<g id="edge2" class="edge">
<title>n2&#45;&gt;n3</title>
<path fill="none" stroke="#ff5722" d="M235.51,-40.96C244.18,-39.81 252.86,-39.57 261.53,-40.23"/>
<polygon fill="#ff5722" stroke="#ff5722" points="261.37,-43.74 271.71,-41.42 262.19,-36.78 261.37,-43.74"/>
</g>
<!-- n3&#45;&gt;n2 -->
<g id="edge5" class="edge">
<title>n3&#45;&gt;n2</title>
<path fill="none" stroke="#ff5722" d="M271.71,-74.31C263.04,-75.68 254.37,-76.15 245.69,-75.71"/>
<polygon fill="#ff5722" stroke="#ff5722" points="245.79,-72.2 235.51,-74.78 245.15,-79.17 245.79,-72.2"/>
</g>
<!-- n3&#45;&gt;n4 -->
<g id="edge4" class="edge">
<title>n3&#45;&gt;n4</title>
<path fill="none" stroke="#ff5722" d="M366.11,-41.45C374.81,-40.07 383.51,-39.59 392.21,-40.02"/>
<polygon fill="#ff5722" stroke="#ff5722" points="392.15,-43.53 402.43,-40.95 392.78,-36.56 392.15,-43.53"/>
</g>
<!-- n4&#45;&gt;n1 -->
<g id="edge7" class="edge">
<title>n4:n&#45;&gt;n1:n</title>
<path fill="none" stroke="#ff5722" d="M453,-81.87C453,-123.69 102.35,-126.55 54.41,-90.44"/>
<polygon fill="#ff5722" stroke="#ff5722" points="57.29,-88.46 49,-81.87 51.37,-92.19 57.29,-88.46"/>
</g>
<!-- n4&#45;&gt;n3 -->
<g id="edge6" class="edge">
<title>n4&#45;&gt;n3</title>
<path fill="none" stroke="#ff5722" d="M402.43,-74.78C393.63,-75.94 384.84,-76.17 376.04,-75.47"/>
<polygon fill="#ff5722" stroke="#ff5722" points="376.45,-71.99 366.11,-74.28 375.62,-78.94 376.45,-71.99"/>
</g>
</g>
</svg>
