<?xml version="1.0" encoding="UTF-8" standalone="no"?>
<!DOCTYPE svg PUBLIC "-//W3C//DTD SVG 1.1//EN"
 "http://www.w3.org/Graphics/SVG/1.1/DTD/svg11.dtd">
<!-- Generated by graphviz version 2.43.0 (0)
 -->
<!-- Title: G Pages: 1 -->
<svg width="504pt" height="146pt"
 viewBox="0.00 0.00 504.00 146.25" xmlns="http://www.w3.org/2000/svg" xmlns:xlink="http://www.w3.org/1999/xlink">
<g id="graph0" class="graph" transform="scale(1 1) rotate(0) translate(4 142.25)">
<title>G</title>
<polygon fill="#f5f5f5" stroke="transparent" points="-4,4 -4,-142.25 500,-142.25 500,4 -4,4"/>
<text text-anchor="middle" x="248" y="-123.05" font-family="Times,serif" font-size="14.00">Historial de transacciones ordenadas descendentemente</text>
<!-- n1 -->
<g id="node1" class="node">
<title>n1</title>
<polygon fill="#004488" stroke="transparent" points="74,-79.63 0,-79.63 0,-35.63 74,-35.63 74,-79.63"/>
<text text-anchor="middle" x="37" y="-71.63" font-family="Times,serif" font-size="5.00" fill="#f5f5f5">id = s9gdsb52we12w6f</text>
<text text-anchor="middle" x="37" y="-65.63" font-family="Times,serif" font-size="5.00" fill="#f5f5f5">Tipo = Renta</text>
<text text-anchor="middle" x="37" y="-59.63" font-family="Times,serif" font-size="5.00" fill="#f5f5f5">Usuario = U5</text>
<text text-anchor="middle" x="37" y="-53.63" font-family="Times,serif" font-size="5.00" fill="#f5f5f5">Activo = A32</text>
<text text-anchor="middle" x="37" y="-47.63" font-family="Times,serif" font-size="5.00" fill="#f5f5f5">Tiempo renta = 3</text>
<text text-anchor="middle" x="37" y="-41.63" font-family="Times,serif" font-size="5.00" fill="#f5f5f5">Fecha = 16/12/2024</text>
</g>
<!-- n2 -->
<g id="node2" class="node">
<title>n2</title>
<polygon fill="#004488" stroke="transparent" points="178,-79.63 110,-79.63 110,-35.63 178,-35.63 178,-79.63"/>
<text text-anchor="middle" x="144" y="-71.63" font-family="Times,serif" font-size="5.00" fill="#f5f5f5">id = j6ielcs52c1hx11</text>
<text text-anchor="middle" x="144" y="-65.63" font-family="Times,serif" font-size="5.00" fill="#f5f5f5">Tipo = Renta</text>
<text text-anchor="middle" x="144" y="-59.63" font-family="Times,serif" font-size="5.00" fill="#f5f5f5">Usuario = U1</text>
<text text-anchor="middle" x="144" y="-53.63" font-family="Times,serif" font-size="5.00" fill="#f5f5f5">Activo = A14</text>
<text text-anchor="middle" x="144" y="-47.63" font-family="Times,serif" font-size="5.00" fill="#f5f5f5">Tiempo renta = 5</text>
<text text-anchor="middle" x="144" y="-41.63" font-family="Times,serif" font-size="5.00" fill="#f5f5f5">Fecha = 16/12/2024</text>
</g>
<!-- n1&#45;&gt;n2 -->
<g id="edge1" class="edge">
<title>n1&#45;&gt;n2</title>
<path fill="none" stroke="#ff5722" d="M74.2,-42.66C82.76,-41.05 91.31,-40.71 99.87,-41.63"/>
<polygon fill="#ff5722" stroke="#ff5722" points="99.48,-45.12 109.92,-43.3 100.63,-38.21 99.48,-45.12"/>
</g>
<!-- n5 -->
<g id="node5" class="node">
<title>n5</title>
<polygon fill="#004488" stroke="transparent" points="496,-79.63 428,-79.63 428,-35.63 496,-35.63 496,-79.63"/>
<text text-anchor="middle" x="462" y="-71.63" font-family="Times,serif" font-size="5.00" fill="#f5f5f5">id = j6ielcs52c1hx11</text>
<text text-anchor="middle" x="462" y="-65.63" font-family="Times,serif" font-size="5.00" fill="#f5f5f5">Tipo = Renta</text>
<text text-anchor="middle" x="462" y="-59.63" font-family="Times,serif" font-size="5.00" fill="#f5f5f5">Usuario = U5</text>
<text text-anchor="middle" x="462" y="-53.63" font-family="Times,serif" font-size="5.00" fill="#f5f5f5">Activo = A14</text>
<text text-anchor="middle" x="462" y="-47.63" font-family="Times,serif" font-size="5.00" fill="#f5f5f5">Tiempo renta = 4</text>
<text text-anchor="middle" x="462" y="-41.63" font-family="Times,serif" font-size="5.00" fill="#f5f5f5">Fecha = 16/12/2024</text>
</g>
<!-- n1&#45;&gt;n5 -->
<g id="edge10" class="edge">
<title>n1:s&#45;&gt;n5:s</title>
<path fill="none" stroke="#ff5722" d="M37,-35.63C37,8.46 407.43,11.39 456.63,-26.84"/>
<polygon fill="#ff5722" stroke="#ff5722" points="453.8,-28.92 462,-35.63 459.77,-25.27 453.8,-28.92"/>
</g>
<!-- n2&#45;&gt;n1 -->
<g id="edge3" class="edge">
<title>n2&#45;&gt;n1</title>
<path fill="none" stroke="#ff5722" d="M109.92,-71.95C101.36,-73.87 92.8,-74.52 84.25,-73.9"/>
<polygon fill="#ff5722" stroke="#ff5722" points="84.57,-70.41 74.2,-72.59 83.66,-77.35 84.57,-70.41"/>
</g>
<!-- n3 -->
<g id="node3" class="node">
<title>n3</title>
<polygon fill="#004488" stroke="transparent" points="287.5,-79.63 214.5,-79.63 214.5,-35.63 287.5,-35.63 287.5,-79.63"/>
<text text-anchor="middle" x="251" y="-71.63" font-family="Times,serif" font-size="5.00" fill="#f5f5f5">id = frod45a6617mv0d</text>
<text text-anchor="middle" x="251" y="-65.63" font-family="Times,serif" font-size="5.00" fill="#f5f5f5">Tipo = Renta</text>
<text text-anchor="middle" x="251" y="-59.63" font-family="Times,serif" font-size="5.00" fill="#f5f5f5">Usuario = U4</text>
<text text-anchor="middle" x="251" y="-53.63" font-family="Times,serif" font-size="5.00" fill="#f5f5f5">Activo = A11</text>
<text text-anchor="middle" x="251" y="-47.63" font-family="Times,serif" font-size="5.00" fill="#f5f5f5">Tiempo renta = 1</text>
<text text-anchor="middle" x="251" y="-41.63" font-family="Times,serif" font-size="5.00" fill="#f5f5f5">Fecha = 16/12/2024</text>
</g>
<!-- n2&#45;&gt;n3 -->
<g id="edge2" class="edge">
<title>n2&#45;&gt;n3</title>
<path fill="none" stroke="#ff5722" d="M178.27,-43.26C186.92,-41.34 195.56,-40.72 204.21,-41.39"/>
<polygon fill="#ff5722" stroke="#ff5722" points="203.97,-44.89 214.35,-42.76 204.91,-37.95 203.97,-44.89"/>
</g>
<!-- n3&#45;&gt;n2 -->
<g id="edge5" class="edge">
<title>n3&#45;&gt;n2</title>
<path fill="none" stroke="#ff5722" d="M214.35,-72.49C205.71,-74.17 197.06,-74.56 188.42,-73.65"/>
<polygon fill="#ff5722" stroke="#ff5722" points="188.71,-70.15 178.27,-72 187.58,-77.06 188.71,-70.15"/>
</g>
<!-- n4 -->
<g id="node4" class="node">
<title>n4</title>
<polygon fill="#004488" stroke="transparent" points="392,-79.63 324,-79.63 324,-35.63 392,-35.63 392,-79.63"/>
<text text-anchor="middle" x="358" y="-71.63" font-family="Times,serif" font-size="5.00" fill="#f5f5f5">id = j6ielcs52c1hx11</text>
<text text-anchor="middle" x="358" y="-65.63" font-family="Times,serif" font-size="5.00" fill="#f5f5f5">Tipo = Devolucion</text>
<text text-anchor="middle" x="358" y="-59.63" font-family="Times,serif" font-size="5.00" fill="#f5f5f5">Usuario = U5</text>
<text text-anchor="middle" x="358" y="-53.63" font-family="Times,serif" font-size="5.00" fill="#f5f5f5">Activo = A14</text>
<text text-anchor="middle" x="358" y="-47.63" font-family="Times,serif" font-size="5.00" fill="#f5f5f5">Tiempo renta = 14</text>
<text text-anchor="middle" x="358" y="-41.63" font-family="Times,serif" font-size="5.00" fill="#f5f5f5">Fecha = 16/12/2024</text>
</g>
<!-- n3&#45;&gt;n4 -->
<g id="edge4" class="edge">
<title>n3&#45;&gt;n4</title>
<path fill="none" stroke="#ff5722" d="M287.78,-42.74C296.55,-41.05 305.32,-40.69 314.09,-41.66"/>
<polygon fill="#ff5722" stroke="#ff5722" points="313.55,-45.11 323.99,-43.32 314.7,-38.21 313.55,-45.11"/>
</g>
<!-- n4&#45;&gt;n3 -->
<g id="edge7" class="edge">
<title>n4&#45;&gt;n3</title>
<path fill="none" stroke="#ff5722" d="M323.99,-71.94C315.31,-73.89 306.64,-74.53 297.96,-73.88"/>
<polygon fill="#ff5722" stroke="#ff5722" points="298.16,-70.37 287.78,-72.52 297.23,-77.31 298.16,-70.37"/>
</g>
<!-- n4&#45;&gt;n5 -->
<g id="edge6" class="edge">
<title>n4&#45;&gt;n5</title>
<path fill="none" stroke="#ff5722" d="M392.12,-43.08C400.69,-41.21 409.26,-40.68 417.82,-41.5"/>
<polygon fill="#ff5722" stroke="#ff5722" points="417.46,-44.99 427.88,-43.08 418.54,-38.07 417.46,-44.99"/>
</g>
<!-- n5&#45;&gt;n1 -->
<g id="edge9" class="edge">
<title>n5:n&#45;&gt;n1:n</title>
<path fill="none" stroke="#ff5722" d="M462,-79.63C462,-123.71 91.57,-126.64 42.37,-88.41"/>
<polygon fill="#ff5722" stroke="#ff5722" points="45.2,-86.33 37,-79.63 39.23,-89.98 45.2,-86.33"/>
</g>
<!-- n5&#45;&gt;n4 -->
<g id="edge8" class="edge">
<title>n5&#45;&gt;n4</title>
<path fill="none" stroke="#ff5722" d="M427.88,-72.18C419.31,-74.04 410.75,-74.57 402.18,-73.75"/>
<polygon fill="#ff5722" stroke="#ff5722" points="402.55,-70.27 392.12,-72.18 401.46,-77.18 402.55,-70.27"/>
</g>
</g>
</svg>
