<?xml version="1.0" encoding="UTF-8" standalone="no"?>
<!DOCTYPE svg PUBLIC "-//W3C//DTD SVG 1.1//EN"
 "http://www.w3.org/Graphics/SVG/1.1/DTD/svg11.dtd">
<!-- Generated by graphviz version 2.43.0 (0)
 -->
<!-- Title: G Pages: 1 -->
<svg width="219pt" height="107pt"
 viewBox="0.00 0.00 219.00 107.00" xmlns="http://www.w3.org/2000/svg" xmlns:xlink="http://www.w3.org/1999/xlink">
<g id="graph0" class="graph" transform="scale(1 1) rotate(0) translate(4 103)">
<title>G</title>
<polygon fill="#f5f5f5" stroke="transparent" points="-4,4 -4,-103 215,-103 215,4 -4,4"/>
<text text-anchor="middle" x="105.5" y="-83.8" font-family="Times,serif" font-size="14.00">Historial de Transacciones </text>
<!-- n1 -->
<g id="node1" class="node">
<title>n1</title>
<polygon fill="#004488" stroke="transparent" points="141.5,-57 69.5,-57 69.5,-19 141.5,-19 141.5,-57"/>
<text text-anchor="middle" x="105.5" y="-49" font-family="Times,serif" font-size="5.00" fill="#f5f5f5">id = l68n777qwx5btvt</text>
<text text-anchor="middle" x="105.5" y="-43" font-family="Times,serif" font-size="5.00" fill="#f5f5f5">Tipo = Renta</text>
<text text-anchor="middle" x="105.5" y="-37" font-family="Times,serif" font-size="5.00" fill="#f5f5f5">Usuario = U2</text>
<text text-anchor="middle" x="105.5" y="-31" font-family="Times,serif" font-size="5.00" fill="#f5f5f5">Activo = A1</text>
<text text-anchor="middle" x="105.5" y="-25" font-family="Times,serif" font-size="5.00" fill="#f5f5f5">Tiempo renta = 1</text>
</g>
<!-- n1&#45;&gt;n1 -->
<g id="edge1" class="edge">
<title>n1:n&#45;&gt;n1:n</title>
<path fill="none" stroke="#ff5722" d="M105.5,-57C123.5,-63.33 123.5,-76 105.5,-76 91.44,-76 88.36,-68.27 96.27,-61.87"/>
<polygon fill="#ff5722" stroke="#ff5722" points="98.29,-64.76 105.5,-57 95.02,-58.57 98.29,-64.76"/>
</g>
<!-- n1&#45;&gt;n1 -->
<g id="edge2" class="edge">
<title>n1:s&#45;&gt;n1:s</title>
<path fill="none" stroke="#ff5722" d="M105.5,-19C123.5,-12.67 123.5,0 105.5,0 91.44,0 88.36,-7.73 96.27,-14.13"/>
<polygon fill="#ff5722" stroke="#ff5722" points="95.02,-17.43 105.5,-19 98.29,-11.24 95.02,-17.43"/>
</g>
</g>
</svg>
