<?xml version="1.0" encoding="UTF-8" standalone="no"?>
<!DOCTYPE svg PUBLIC "-//W3C//DTD SVG 1.1//EN"
 "http://www.w3.org/Graphics/SVG/1.1/DTD/svg11.dtd">
<!-- Generated by graphviz version 2.43.0 (0)
 -->
<!-- Title: G Pages: 1 -->
<svg width="421pt" height="141pt"
 viewBox="0.00 0.00 421.00 141.09" xmlns="http://www.w3.org/2000/svg" xmlns:xlink="http://www.w3.org/1999/xlink">
<g id="graph0" class="graph" transform="scale(1 1) rotate(0) translate(4 137.09)">
<title>G</title>
<polygon fill="#f5f5f5" stroke="transparent" points="-4,4 -4,-137.09 417,-137.09 417,4 -4,4"/>
<text text-anchor="middle" x="206.5" y="-117.89" font-family="Times,serif" font-size="14.00">Historial de transacciones ordenadas ascendentemente</text>
<!-- n1 -->
<g id="node1" class="node">
<title>n1</title>
<polygon fill="#004488" stroke="transparent" points="134,-74.05 63,-74.05 63,-36.05 134,-36.05 134,-74.05"/>
<text text-anchor="middle" x="98.5" y="-66.05" font-family="Times,serif" font-size="5.00" fill="#f5f5f5">id = b12ebn604b7rir9</text>
<text text-anchor="middle" x="98.5" y="-60.05" font-family="Times,serif" font-size="5.00" fill="#f5f5f5">Tipo = Renta</text>
<text text-anchor="middle" x="98.5" y="-54.05" font-family="Times,serif" font-size="5.00" fill="#f5f5f5">Usuario = U1</text>
<text text-anchor="middle" x="98.5" y="-48.05" font-family="Times,serif" font-size="5.00" fill="#f5f5f5">Activo = A13</text>
<text text-anchor="middle" x="98.5" y="-42.05" font-family="Times,serif" font-size="5.00" fill="#f5f5f5">Tiempo renta = 1</text>
</g>
<!-- n2 -->
<g id="node2" class="node">
<title>n2</title>
<polygon fill="#004488" stroke="transparent" points="241,-74.05 170,-74.05 170,-36.05 241,-36.05 241,-74.05"/>
<text text-anchor="middle" x="205.5" y="-66.05" font-family="Times,serif" font-size="5.00" fill="#f5f5f5">id = mjf6r66m1989a6i</text>
<text text-anchor="middle" x="205.5" y="-60.05" font-family="Times,serif" font-size="5.00" fill="#f5f5f5">Tipo = Renta</text>
<text text-anchor="middle" x="205.5" y="-54.05" font-family="Times,serif" font-size="5.00" fill="#f5f5f5">Usuario = U1</text>
<text text-anchor="middle" x="205.5" y="-48.05" font-family="Times,serif" font-size="5.00" fill="#f5f5f5">Activo = A23</text>
<text text-anchor="middle" x="205.5" y="-42.05" font-family="Times,serif" font-size="5.00" fill="#f5f5f5">Tiempo renta = 2</text>
</g>
<!-- n1&#45;&gt;n2 -->
<g id="edge1" class="edge">
<title>n1&#45;&gt;n2</title>
<path fill="none" stroke="#ff5722" d="M134.03,-42.4C142.59,-40.87 151.15,-40.43 159.71,-41.09"/>
<polygon fill="#ff5722" stroke="#ff5722" points="159.4,-44.58 169.76,-42.37 160.28,-37.64 159.4,-44.58"/>
</g>
<!-- n3 -->
<g id="node3" class="node">
<title>n3</title>
<polygon fill="#004488" stroke="transparent" points="350,-74.05 277,-74.05 277,-36.05 350,-36.05 350,-74.05"/>
<text text-anchor="middle" x="313.5" y="-66.05" font-family="Times,serif" font-size="5.00" fill="#f5f5f5">id = 87m11g75788f6sc</text>
<text text-anchor="middle" x="313.5" y="-60.05" font-family="Times,serif" font-size="5.00" fill="#f5f5f5">Tipo = Renta</text>
<text text-anchor="middle" x="313.5" y="-54.05" font-family="Times,serif" font-size="5.00" fill="#f5f5f5">Usuario = U1</text>
<text text-anchor="middle" x="313.5" y="-48.05" font-family="Times,serif" font-size="5.00" fill="#f5f5f5">Activo = A33</text>
<text text-anchor="middle" x="313.5" y="-42.05" font-family="Times,serif" font-size="5.00" fill="#f5f5f5">Tiempo renta = 3</text>
</g>
<!-- n1&#45;&gt;n3 -->
<g id="edge6" class="edge">
<title>n1:s&#45;&gt;n3:s</title>
<path fill="none" stroke="#ff5722" d="M98.5,-36.05C98.5,8.19 282.77,11.47 310.12,-26.2"/>
<polygon fill="#ff5722" stroke="#ff5722" points="306.95,-27.72 313.5,-36.05 313.57,-25.45 306.95,-27.72"/>
</g>
<!-- n2&#45;&gt;n1 -->
<g id="edge3" class="edge">
<title>n2&#45;&gt;n1</title>
<path fill="none" stroke="#ff5722" d="M169.76,-67.73C161.2,-69.24 152.64,-69.66 144.08,-68.98"/>
<polygon fill="#ff5722" stroke="#ff5722" points="144.39,-65.5 134.03,-67.69 143.5,-72.44 144.39,-65.5"/>
</g>
<!-- n2&#45;&gt;n3 -->
<g id="edge2" class="edge">
<title>n2&#45;&gt;n3</title>
<path fill="none" stroke="#ff5722" d="M241.36,-42.4C249.87,-40.9 258.37,-40.45 266.88,-41.06"/>
<polygon fill="#ff5722" stroke="#ff5722" points="266.52,-44.54 276.87,-42.27 267.36,-37.59 266.52,-44.54"/>
</g>
<!-- n3&#45;&gt;n1 -->
<g id="edge5" class="edge">
<title>n3:n&#45;&gt;n1:n</title>
<path fill="none" stroke="#ff5722" d="M313.5,-74.05C313.5,-118.28 129.23,-121.56 101.88,-83.89"/>
<polygon fill="#ff5722" stroke="#ff5722" points="105.05,-82.37 98.5,-74.05 98.43,-84.64 105.05,-82.37"/>
</g>
<!-- n3&#45;&gt;n2 -->
<g id="edge4" class="edge">
<title>n3&#45;&gt;n2</title>
<path fill="none" stroke="#ff5722" d="M276.87,-67.82C268.36,-69.27 259.85,-69.65 251.35,-68.97"/>
<polygon fill="#ff5722" stroke="#ff5722" points="251.72,-65.49 241.36,-67.69 250.83,-72.43 251.72,-65.49"/>
</g>
</g>
</svg>
