<?xml version="1.0" encoding="UTF-8" standalone="no"?>
<!DOCTYPE svg PUBLIC "-//W3C//DTD SVG 1.1//EN"
 "http://www.w3.org/Graphics/SVG/1.1/DTD/svg11.dtd">
<!-- Generated by graphviz version 2.43.0 (0)
 -->
<!-- Title: G Pages: 1 -->
<svg width="511pt" height="147pt"
 viewBox="0.00 0.00 511.00 147.24" xmlns="http://www.w3.org/2000/svg" xmlns:xlink="http://www.w3.org/1999/xlink">
<g id="graph0" class="graph" transform="scale(1 1) rotate(0) translate(4 143.24)">
<title>G</title>
<polygon fill="#f5f5f5" stroke="transparent" points="-4,4 -4,-143.24 507,-143.24 507,4 -4,4"/>
<text text-anchor="middle" x="251.5" y="-124.04" font-family="Times,serif" font-size="14.00">Historial de Transacciones ordenadas Ascendentemente</text>
<!-- n1 -->
<g id="node1" class="node">
<title>n1</title>
<polygon fill="#004488" stroke="transparent" points="94,-82.12 0,-82.12 0,-34.12 94,-34.12 94,-82.12"/>
<text text-anchor="middle" x="47" y="-72.52" font-family="Times,serif" font-size="7.00" fill="#f5f5f5">id = 51f88i9p0lo66ox</text>
<text text-anchor="middle" x="47" y="-64.52" font-family="Times,serif" font-size="7.00" fill="#f5f5f5">Tipo = Renta</text>
<text text-anchor="middle" x="47" y="-56.52" font-family="Times,serif" font-size="7.00" fill="#f5f5f5">Usuario = U4</text>
<text text-anchor="middle" x="47" y="-48.52" font-family="Times,serif" font-size="7.00" fill="#f5f5f5">Activo = A4</text>
<text text-anchor="middle" x="47" y="-40.52" font-family="Times,serif" font-size="7.00" fill="#f5f5f5">Tiempo renta = 4</text>
</g>
<!-- n2 -->
<g id="node2" class="node">
<title>n2</title>
<polygon fill="#004488" stroke="transparent" points="231.5,-82.12 130.5,-82.12 130.5,-34.12 231.5,-34.12 231.5,-82.12"/>
<text text-anchor="middle" x="181" y="-72.52" font-family="Times,serif" font-size="7.00" fill="#f5f5f5">id = 6ouk351m8v7spv2</text>
<text text-anchor="middle" x="181" y="-64.52" font-family="Times,serif" font-size="7.00" fill="#f5f5f5">Tipo = Renta</text>
<text text-anchor="middle" x="181" y="-56.52" font-family="Times,serif" font-size="7.00" fill="#f5f5f5">Usuario = U3</text>
<text text-anchor="middle" x="181" y="-48.52" font-family="Times,serif" font-size="7.00" fill="#f5f5f5">Activo = A3</text>
<text text-anchor="middle" x="181" y="-40.52" font-family="Times,serif" font-size="7.00" fill="#f5f5f5">Tiempo renta = 3</text>
</g>
<!-- n1&#45;&gt;n2 -->
<g id="edge1" class="edge">
<title>n1&#45;&gt;n2</title>
<path fill="none" stroke="#ff5722" d="M94.11,-41.7C102.81,-40.32 111.51,-39.84 120.21,-40.27"/>
<polygon fill="#ff5722" stroke="#ff5722" points="120.15,-43.78 130.43,-41.2 120.78,-36.81 120.15,-43.78"/>
</g>
<!-- n4 -->
<g id="node4" class="node">
<title>n4</title>
<polygon fill="#004488" stroke="transparent" points="503,-82.12 405,-82.12 405,-34.12 503,-34.12 503,-82.12"/>
<text text-anchor="middle" x="454" y="-72.52" font-family="Times,serif" font-size="7.00" fill="#f5f5f5">id = pnnm9fs582205rx</text>
<text text-anchor="middle" x="454" y="-64.52" font-family="Times,serif" font-size="7.00" fill="#f5f5f5">Tipo = Renta</text>
<text text-anchor="middle" x="454" y="-56.52" font-family="Times,serif" font-size="7.00" fill="#f5f5f5">Usuario = U2</text>
<text text-anchor="middle" x="454" y="-48.52" font-family="Times,serif" font-size="7.00" fill="#f5f5f5">Activo = A2</text>
<text text-anchor="middle" x="454" y="-40.52" font-family="Times,serif" font-size="7.00" fill="#f5f5f5">Tiempo renta = 2</text>
</g>
<!-- n1&#45;&gt;n4 -->
<g id="edge8" class="edge">
<title>n1:s&#45;&gt;n4:s</title>
<path fill="none" stroke="#ff5722" d="M47,-34.12C47,8.01 400.26,10.89 448.55,-25.48"/>
<polygon fill="#ff5722" stroke="#ff5722" points="445.71,-27.52 454,-34.12 451.63,-23.79 445.71,-27.52"/>
</g>
<!-- n2&#45;&gt;n1 -->
<g id="edge3" class="edge">
<title>n2&#45;&gt;n1</title>
<path fill="none" stroke="#ff5722" d="M130.43,-75.04C121.63,-76.19 112.84,-76.42 104.04,-75.72"/>
<polygon fill="#ff5722" stroke="#ff5722" points="104.45,-72.25 94.11,-74.53 103.62,-79.2 104.45,-72.25"/>
</g>
<!-- n3 -->
<g id="node3" class="node">
<title>n3</title>
<polygon fill="#004488" stroke="transparent" points="368.5,-82.12 267.5,-82.12 267.5,-34.12 368.5,-34.12 368.5,-82.12"/>
<text text-anchor="middle" x="318" y="-72.52" font-family="Times,serif" font-size="7.00" fill="#f5f5f5">id = a2c79uka54jmhk5</text>
<text text-anchor="middle" x="318" y="-64.52" font-family="Times,serif" font-size="7.00" fill="#f5f5f5">Tipo = Renta</text>
<text text-anchor="middle" x="318" y="-56.52" font-family="Times,serif" font-size="7.00" fill="#f5f5f5">Usuario = U1</text>
<text text-anchor="middle" x="318" y="-48.52" font-family="Times,serif" font-size="7.00" fill="#f5f5f5">Activo = A1</text>
<text text-anchor="middle" x="318" y="-40.52" font-family="Times,serif" font-size="7.00" fill="#f5f5f5">Tiempo renta = 1</text>
</g>
<!-- n2&#45;&gt;n3 -->
<g id="edge2" class="edge">
<title>n2&#45;&gt;n3</title>
<path fill="none" stroke="#ff5722" d="M231.57,-41.35C240.15,-40.17 248.72,-39.84 257.29,-40.35"/>
<polygon fill="#ff5722" stroke="#ff5722" points="257.06,-43.85 267.36,-41.34 257.75,-36.88 257.06,-43.85"/>
</g>
<!-- n3&#45;&gt;n2 -->
<g id="edge5" class="edge">
<title>n3&#45;&gt;n2</title>
<path fill="none" stroke="#ff5722" d="M267.36,-74.89C258.78,-76.07 250.21,-76.4 241.64,-75.88"/>
<polygon fill="#ff5722" stroke="#ff5722" points="241.87,-72.39 231.57,-74.89 241.18,-79.35 241.87,-72.39"/>
</g>
<!-- n3&#45;&gt;n4 -->
<g id="edge4" class="edge">
<title>n3&#45;&gt;n4</title>
<path fill="none" stroke="#ff5722" d="M368.73,-41.28C377.35,-40.12 385.97,-39.83 394.59,-40.41"/>
<polygon fill="#ff5722" stroke="#ff5722" points="394.39,-43.9 404.71,-41.48 395.13,-36.94 394.39,-43.9"/>
</g>
<!-- n4&#45;&gt;n1 -->
<g id="edge7" class="edge">
<title>n4:n&#45;&gt;n1:n</title>
<path fill="none" stroke="#ff5722" d="M454,-82.12C454,-124.25 100.74,-127.13 52.45,-90.76"/>
<polygon fill="#ff5722" stroke="#ff5722" points="55.29,-88.71 47,-82.12 49.37,-92.44 55.29,-88.71"/>
</g>
<!-- n4&#45;&gt;n3 -->
<g id="edge6" class="edge">
<title>n4&#45;&gt;n3</title>
<path fill="none" stroke="#ff5722" d="M404.71,-74.76C396.09,-76.01 387.47,-76.4 378.85,-75.92"/>
<polygon fill="#ff5722" stroke="#ff5722" points="379.02,-72.42 368.73,-74.96 378.36,-79.39 379.02,-72.42"/>
</g>
</g>
</svg>
