<?xml version="1.0" encoding="UTF-8" standalone="no"?>
<!DOCTYPE svg PUBLIC "-//W3C//DTD SVG 1.1//EN"
 "http://www.w3.org/Graphics/SVG/1.1/DTD/svg11.dtd">
<!-- Generated by graphviz version 2.43.0 (0)
 -->
<!-- Title: G Pages: 1 -->
<svg width="430pt" height="141pt"
 viewBox="0.00 0.00 430.00 141.09" xmlns="http://www.w3.org/2000/svg" xmlns:xlink="http://www.w3.org/1999/xlink">
<g id="graph0" class="graph" transform="scale(1 1) rotate(0) translate(4 137.09)">
<title>G</title>
<polygon fill="#f5f5f5" stroke="transparent" points="-4,4 -4,-137.09 426,-137.09 426,4 -4,4"/>
<text text-anchor="middle" x="211" y="-117.89" font-family="Times,serif" font-size="14.00">Historial de transacciones ordenadas descendentemente</text>
<!-- n1 -->
<g id="node1" class="node">
<title>n1</title>
<polygon fill="#004488" stroke="transparent" points="140.5,-74.05 67.5,-74.05 67.5,-36.05 140.5,-36.05 140.5,-74.05"/>
<text text-anchor="middle" x="104" y="-66.05" font-family="Times,serif" font-size="5.00" fill="#f5f5f5">id = 87m11g75788f6sc</text>
<text text-anchor="middle" x="104" y="-60.05" font-family="Times,serif" font-size="5.00" fill="#f5f5f5">Tipo = Renta</text>
<text text-anchor="middle" x="104" y="-54.05" font-family="Times,serif" font-size="5.00" fill="#f5f5f5">Usuario = U1</text>
<text text-anchor="middle" x="104" y="-48.05" font-family="Times,serif" font-size="5.00" fill="#f5f5f5">Activo = A33</text>
<text text-anchor="middle" x="104" y="-42.05" font-family="Times,serif" font-size="5.00" fill="#f5f5f5">Tiempo renta = 3</text>
</g>
<!-- n2 -->
<g id="node2" class="node">
<title>n2</title>
<polygon fill="#004488" stroke="transparent" points="247.5,-74.05 176.5,-74.05 176.5,-36.05 247.5,-36.05 247.5,-74.05"/>
<text text-anchor="middle" x="212" y="-66.05" font-family="Times,serif" font-size="5.00" fill="#f5f5f5">id = mjf6r66m1989a6i</text>
<text text-anchor="middle" x="212" y="-60.05" font-family="Times,serif" font-size="5.00" fill="#f5f5f5">Tipo = Renta</text>
<text text-anchor="middle" x="212" y="-54.05" font-family="Times,serif" font-size="5.00" fill="#f5f5f5">Usuario = U1</text>
<text text-anchor="middle" x="212" y="-48.05" font-family="Times,serif" font-size="5.00" fill="#f5f5f5">Activo = A23</text>
<text text-anchor="middle" x="212" y="-42.05" font-family="Times,serif" font-size="5.00" fill="#f5f5f5">Tiempo renta = 2</text>
</g>
<!-- n1&#45;&gt;n2 -->
<g id="edge1" class="edge">
<title>n1&#45;&gt;n2</title>
<path fill="none" stroke="#ff5722" d="M140.7,-42.26C149.24,-40.81 157.78,-40.44 166.33,-41.14"/>
<polygon fill="#ff5722" stroke="#ff5722" points="165.98,-44.62 176.35,-42.44 166.89,-37.68 165.98,-44.62"/>
</g>
<!-- n3 -->
<g id="node3" class="node">
<title>n3</title>
<polygon fill="#004488" stroke="transparent" points="354.5,-74.05 283.5,-74.05 283.5,-36.05 354.5,-36.05 354.5,-74.05"/>
<text text-anchor="middle" x="319" y="-66.05" font-family="Times,serif" font-size="5.00" fill="#f5f5f5">id = b12ebn604b7rir9</text>
<text text-anchor="middle" x="319" y="-60.05" font-family="Times,serif" font-size="5.00" fill="#f5f5f5">Tipo = Renta</text>
<text text-anchor="middle" x="319" y="-54.05" font-family="Times,serif" font-size="5.00" fill="#f5f5f5">Usuario = U1</text>
<text text-anchor="middle" x="319" y="-48.05" font-family="Times,serif" font-size="5.00" fill="#f5f5f5">Activo = A13</text>
<text text-anchor="middle" x="319" y="-42.05" font-family="Times,serif" font-size="5.00" fill="#f5f5f5">Tiempo renta = 1</text>
</g>
<!-- n1&#45;&gt;n3 -->
<g id="edge6" class="edge">
<title>n1:s&#45;&gt;n3:s</title>
<path fill="none" stroke="#ff5722" d="M104,-36.05C104,8.19 288.27,11.47 315.62,-26.2"/>
<polygon fill="#ff5722" stroke="#ff5722" points="312.45,-27.72 319,-36.05 319.07,-25.45 312.45,-27.72"/>
</g>
<!-- n2&#45;&gt;n1 -->
<g id="edge3" class="edge">
<title>n2&#45;&gt;n1</title>
<path fill="none" stroke="#ff5722" d="M176.35,-67.65C167.81,-69.18 159.27,-69.64 150.73,-69.04"/>
<polygon fill="#ff5722" stroke="#ff5722" points="151.05,-65.55 140.7,-67.83 150.21,-72.5 151.05,-65.55"/>
</g>
<!-- n2&#45;&gt;n3 -->
<g id="edge2" class="edge">
<title>n2&#45;&gt;n3</title>
<path fill="none" stroke="#ff5722" d="M247.53,-42.4C256.09,-40.87 264.65,-40.43 273.21,-41.09"/>
<polygon fill="#ff5722" stroke="#ff5722" points="272.9,-44.58 283.26,-42.37 273.78,-37.64 272.9,-44.58"/>
</g>
<!-- n3&#45;&gt;n1 -->
<g id="edge5" class="edge">
<title>n3:n&#45;&gt;n1:n</title>
<path fill="none" stroke="#ff5722" d="M319,-74.05C319,-118.28 134.73,-121.56 107.38,-83.89"/>
<polygon fill="#ff5722" stroke="#ff5722" points="110.55,-82.37 104,-74.05 103.93,-84.64 110.55,-82.37"/>
</g>
<!-- n3&#45;&gt;n2 -->
<g id="edge4" class="edge">
<title>n3&#45;&gt;n2</title>
<path fill="none" stroke="#ff5722" d="M283.26,-67.73C274.7,-69.24 266.14,-69.66 257.58,-68.98"/>
<polygon fill="#ff5722" stroke="#ff5722" points="257.89,-65.5 247.53,-67.69 257,-72.44 257.89,-65.5"/>
</g>
</g>
</svg>
