<?xml version="1.0" encoding="UTF-8" standalone="no"?>
<!DOCTYPE svg PUBLIC "-//W3C//DTD SVG 1.1//EN"
 "http://www.w3.org/Graphics/SVG/1.1/DTD/svg11.dtd">
<!-- Generated by graphviz version 2.43.0 (0)
 -->
<!-- Title: G Pages: 1 -->
<svg width="282pt" height="188pt"
 viewBox="0.00 0.00 282.00 188.00" xmlns="http://www.w3.org/2000/svg" xmlns:xlink="http://www.w3.org/1999/xlink">
<g id="graph0" class="graph" transform="scale(1 1) rotate(0) translate(4 184)">
<title>G</title>
<polygon fill="white" stroke="transparent" points="-4,4 -4,-184 278,-184 278,4 -4,4"/>
<!-- n1 -->
<g id="node1" class="node">
<title>n1</title>
<polygon fill="none" stroke="black" points="90,-180 36,-180 36,-144 90,-144 90,-180"/>
<text text-anchor="middle" x="63" y="-158.3" font-family="Times,serif" font-size="14.00">U1</text>
</g>
<!-- n63j7373a119vd8x -->
<g id="node2" class="node">
<title>n63j7373a119vd8x</title>
<ellipse fill="green" stroke="black" cx="63" cy="-90" rx="27" ry="18"/>
<text text-anchor="middle" x="63" y="-86.3" font-family="Times,serif" font-size="14.00">A1</text>
</g>
<!-- n1&#45;&gt;n63j7373a119vd8x -->
<g id="edge1" class="edge">
<title>n1&#45;&gt;n63j7373a119vd8x</title>
<path fill="none" stroke="black" d="M63,-143.7C63,-135.98 63,-126.71 63,-118.11"/>
<polygon fill="black" stroke="black" points="66.5,-118.1 63,-108.1 59.5,-118.1 66.5,-118.1"/>
</g>
<!-- n1yy508dmxv05xz2 -->
<g id="node3" class="node">
<title>n1yy508dmxv05xz2</title>
<ellipse fill="green" stroke="black" cx="27" cy="-18" rx="27" ry="18"/>
<text text-anchor="middle" x="27" y="-14.3" font-family="Times,serif" font-size="14.00">A2</text>
</g>
<!-- n63j7373a119vd8x&#45;&gt;n1yy508dmxv05xz2 -->
<g id="edge2" class="edge">
<title>n63j7373a119vd8x&#45;&gt;n1yy508dmxv05xz2</title>
<path fill="none" stroke="black" d="M54.65,-72.76C50.29,-64.28 44.85,-53.71 39.96,-44.2"/>
<polygon fill="black" stroke="black" points="42.99,-42.44 35.3,-35.15 36.77,-45.64 42.99,-42.44"/>
</g>
<!-- nsacb5gox853k076 -->
<g id="node4" class="node">
<title>nsacb5gox853k076</title>
<ellipse fill="green" stroke="black" cx="99" cy="-18" rx="27" ry="18"/>
<text text-anchor="middle" x="99" y="-14.3" font-family="Times,serif" font-size="14.00">A3</text>
</g>
<!-- n63j7373a119vd8x&#45;&gt;nsacb5gox853k076 -->
<g id="edge3" class="edge">
<title>n63j7373a119vd8x&#45;&gt;nsacb5gox853k076</title>
<path fill="none" stroke="black" d="M71.35,-72.76C75.71,-64.28 81.15,-53.71 86.04,-44.2"/>
<polygon fill="black" stroke="black" points="89.23,-45.64 90.7,-35.15 83.01,-42.44 89.23,-45.64"/>
</g>
<!-- n7 -->
<g id="node5" class="node">
<title>n7</title>
<polygon fill="none" stroke="black" points="237,-180 183,-180 183,-144 237,-144 237,-180"/>
<text text-anchor="middle" x="210" y="-158.3" font-family="Times,serif" font-size="14.00">U3</text>
</g>
<!-- nf4eu8t444267o4w -->
<g id="node6" class="node">
<title>nf4eu8t444267o4w</title>
<ellipse fill="green" stroke="black" cx="210" cy="-90" rx="27" ry="18"/>
<text text-anchor="middle" x="210" y="-86.3" font-family="Times,serif" font-size="14.00">A5</text>
</g>
<!-- n7&#45;&gt;nf4eu8t444267o4w -->
<g id="edge4" class="edge">
<title>n7&#45;&gt;nf4eu8t444267o4w</title>
<path fill="none" stroke="black" d="M210,-143.7C210,-135.98 210,-126.71 210,-118.11"/>
<polygon fill="black" stroke="black" points="213.5,-118.1 210,-108.1 206.5,-118.1 213.5,-118.1"/>
</g>
<!-- nf41cxrf1r0613h3 -->
<g id="node7" class="node">
<title>nf41cxrf1r0613h3</title>
<ellipse fill="green" stroke="black" cx="173" cy="-18" rx="28.7" ry="18"/>
<text text-anchor="middle" x="173" y="-14.3" font-family="Times,serif" font-size="14.00">A10</text>
</g>
<!-- nf4eu8t444267o4w&#45;&gt;nf41cxrf1r0613h3 -->
<g id="edge5" class="edge">
<title>nf4eu8t444267o4w&#45;&gt;nf41cxrf1r0613h3</title>
<path fill="none" stroke="black" d="M201.42,-72.76C197,-64.4 191.51,-54.02 186.53,-44.61"/>
<polygon fill="black" stroke="black" points="189.56,-42.84 181.79,-35.63 183.37,-46.11 189.56,-42.84"/>
</g>
<!-- nrxgg5tv7ij8ncn9 -->
<g id="node8" class="node">
<title>nrxgg5tv7ij8ncn9</title>
<ellipse fill="red" stroke="black" cx="247" cy="-18" rx="27" ry="18"/>
<text text-anchor="middle" x="247" y="-14.3" font-family="Times,serif" font-size="14.00">A4</text>
</g>
<!-- nf4eu8t444267o4w&#45;&gt;nrxgg5tv7ij8ncn9 -->
<g id="edge6" class="edge">
<title>nf4eu8t444267o4w&#45;&gt;nrxgg5tv7ij8ncn9</title>
<path fill="none" stroke="black" d="M218.58,-72.76C223.06,-64.28 228.65,-53.71 233.68,-44.2"/>
<polygon fill="black" stroke="black" points="236.89,-45.62 238.46,-35.15 230.7,-42.35 236.89,-45.62"/>
</g>
</g>
</svg>
