<?xml version="1.0" encoding="UTF-8" standalone="no"?>
<!DOCTYPE svg PUBLIC "-//W3C//DTD SVG 1.1//EN"
 "http://www.w3.org/Graphics/SVG/1.1/DTD/svg11.dtd">
<!-- Generated by graphviz version 2.43.0 (0)
 -->
<!-- Title: G Pages: 1 -->
<svg width="365pt" height="211pt"
 viewBox="0.00 0.00 365.19 211.00" xmlns="http://www.w3.org/2000/svg" xmlns:xlink="http://www.w3.org/1999/xlink">
<g id="graph0" class="graph" transform="scale(1 1) rotate(0) translate(4 207)">
<title>G</title>
<polygon fill="white" stroke="transparent" points="-4,4 -4,-207 361.19,-207 361.19,4 -4,4"/>
<text text-anchor="middle" x="178.6" y="-187.8" font-family="Times,serif" font-size="14.00">Activos disponibles Max </text>
<!-- n1 -->
<g id="node1" class="node">
<title>n1</title>
<polygon fill="none" stroke="black" points="93.6,-180 39.6,-180 39.6,-144 93.6,-144 93.6,-180"/>
<text text-anchor="middle" x="66.6" y="-158.3" font-family="Times,serif" font-size="14.00">U1</text>
</g>
<!-- nfrod45a6617mv0d -->
<g id="node2" class="node">
<title>nfrod45a6617mv0d</title>
<ellipse fill="red" stroke="black" cx="66.6" cy="-90" rx="28.7" ry="18"/>
<text text-anchor="middle" x="66.6" y="-86.3" font-family="Times,serif" font-size="14.00">A11</text>
</g>
<!-- n1&#45;&gt;nfrod45a6617mv0d -->
<g id="edge1" class="edge">
<title>n1&#45;&gt;nfrod45a6617mv0d</title>
<path fill="none" stroke="black" d="M66.6,-143.7C66.6,-135.98 66.6,-126.71 66.6,-118.11"/>
<polygon fill="black" stroke="black" points="70.1,-118.1 66.6,-108.1 63.1,-118.1 70.1,-118.1"/>
</g>
<!-- n27xi985h9y9nq87 -->
<g id="node3" class="node">
<title>n27xi985h9y9nq87</title>
<ellipse fill="green" stroke="black" cx="28.6" cy="-18" rx="28.7" ry="18"/>
<text text-anchor="middle" x="28.6" y="-14.3" font-family="Times,serif" font-size="14.00">A21</text>
</g>
<!-- nfrod45a6617mv0d&#45;&gt;n27xi985h9y9nq87 -->
<g id="edge2" class="edge">
<title>nfrod45a6617mv0d&#45;&gt;n27xi985h9y9nq87</title>
<path fill="none" stroke="black" d="M57.78,-72.76C53.18,-64.28 47.44,-53.71 42.28,-44.2"/>
<polygon fill="black" stroke="black" points="45.21,-42.27 37.36,-35.15 39.06,-45.61 45.21,-42.27"/>
</g>
<!-- nm0by2o07y0335zw -->
<g id="node4" class="node">
<title>nm0by2o07y0335zw</title>
<ellipse fill="green" stroke="black" cx="103.6" cy="-18" rx="28.7" ry="18"/>
<text text-anchor="middle" x="103.6" y="-14.3" font-family="Times,serif" font-size="14.00">A31</text>
</g>
<!-- nfrod45a6617mv0d&#45;&gt;nm0by2o07y0335zw -->
<g id="edge3" class="edge">
<title>nfrod45a6617mv0d&#45;&gt;nm0by2o07y0335zw</title>
<path fill="none" stroke="black" d="M75.18,-72.76C79.6,-64.4 85.09,-54.02 90.06,-44.61"/>
<polygon fill="black" stroke="black" points="93.23,-46.11 94.81,-35.63 87.04,-42.84 93.23,-46.11"/>
</g>
<!-- n8 -->
<g id="node5" class="node">
<title>n8</title>
<polygon fill="none" stroke="black" points="205.6,-180 151.6,-180 151.6,-144 205.6,-144 205.6,-180"/>
<text text-anchor="middle" x="178.6" y="-158.3" font-family="Times,serif" font-size="14.00">U4</text>
</g>
<!-- n8c9t8ff9075svj8 -->
<g id="node6" class="node">
<title>n8c9t8ff9075svj8</title>
<ellipse fill="green" stroke="black" cx="178.6" cy="-90" rx="28.7" ry="18"/>
<text text-anchor="middle" x="178.6" y="-86.3" font-family="Times,serif" font-size="14.00">A24</text>
</g>
<!-- n8&#45;&gt;n8c9t8ff9075svj8 -->
<g id="edge4" class="edge">
<title>n8&#45;&gt;n8c9t8ff9075svj8</title>
<path fill="none" stroke="black" d="M178.6,-143.7C178.6,-135.98 178.6,-126.71 178.6,-118.11"/>
<polygon fill="black" stroke="black" points="182.1,-118.1 178.6,-108.1 175.1,-118.1 182.1,-118.1"/>
</g>
<!-- nj6ielcs52c1hx11 -->
<g id="node7" class="node">
<title>nj6ielcs52c1hx11</title>
<ellipse fill="red" stroke="black" cx="178.6" cy="-18" rx="28.7" ry="18"/>
<text text-anchor="middle" x="178.6" y="-14.3" font-family="Times,serif" font-size="14.00">A14</text>
</g>
<!-- n8c9t8ff9075svj8&#45;&gt;nj6ielcs52c1hx11 -->
<g id="edge5" class="edge">
<title>n8c9t8ff9075svj8&#45;&gt;nj6ielcs52c1hx11</title>
<path fill="none" stroke="black" d="M178.6,-71.7C178.6,-63.98 178.6,-54.71 178.6,-46.11"/>
<polygon fill="black" stroke="black" points="182.1,-46.1 178.6,-36.1 175.1,-46.1 182.1,-46.1"/>
</g>
<!-- n7 -->
<g id="node8" class="node">
<title>n7</title>
<polygon fill="none" stroke="black" points="317.6,-180 263.6,-180 263.6,-144 317.6,-144 317.6,-180"/>
<text text-anchor="middle" x="290.6" y="-158.3" font-family="Times,serif" font-size="14.00">U3</text>
</g>
<!-- n79s10km5m194gpk -->
<g id="node9" class="node">
<title>n79s10km5m194gpk</title>
<ellipse fill="green" stroke="black" cx="290.6" cy="-90" rx="28.7" ry="18"/>
<text text-anchor="middle" x="290.6" y="-86.3" font-family="Times,serif" font-size="14.00">A23</text>
</g>
<!-- n7&#45;&gt;n79s10km5m194gpk -->
<g id="edge6" class="edge">
<title>n7&#45;&gt;n79s10km5m194gpk</title>
<path fill="none" stroke="black" d="M290.6,-143.7C290.6,-135.98 290.6,-126.71 290.6,-118.11"/>
<polygon fill="black" stroke="black" points="294.1,-118.1 290.6,-108.1 287.1,-118.1 294.1,-118.1"/>
</g>
<!-- n3i5537u39ghb32j -->
<g id="node10" class="node">
<title>n3i5537u39ghb32j</title>
<ellipse fill="green" stroke="black" cx="253.6" cy="-18" rx="28.7" ry="18"/>
<text text-anchor="middle" x="253.6" y="-14.3" font-family="Times,serif" font-size="14.00">A13</text>
</g>
<!-- n79s10km5m194gpk&#45;&gt;n3i5537u39ghb32j -->
<g id="edge7" class="edge">
<title>n79s10km5m194gpk&#45;&gt;n3i5537u39ghb32j</title>
<path fill="none" stroke="black" d="M282.02,-72.76C277.6,-64.4 272.11,-54.02 267.13,-44.61"/>
<polygon fill="black" stroke="black" points="270.16,-42.84 262.39,-35.63 263.97,-46.11 270.16,-42.84"/>
</g>
<!-- n7l2jlwt743k3351 -->
<g id="node11" class="node">
<title>n7l2jlwt743k3351</title>
<ellipse fill="green" stroke="black" cx="328.6" cy="-18" rx="28.7" ry="18"/>
<text text-anchor="middle" x="328.6" y="-14.3" font-family="Times,serif" font-size="14.00">A33</text>
</g>
<!-- n79s10km5m194gpk&#45;&gt;n7l2jlwt743k3351 -->
<g id="edge8" class="edge">
<title>n79s10km5m194gpk&#45;&gt;n7l2jlwt743k3351</title>
<path fill="none" stroke="black" d="M299.41,-72.76C304.02,-64.28 309.75,-53.71 314.92,-44.2"/>
<polygon fill="black" stroke="black" points="318.14,-45.61 319.83,-35.15 311.98,-42.27 318.14,-45.61"/>
</g>
</g>
</svg>
