<?xml version="1.0" encoding="UTF-8" standalone="no"?>
<!DOCTYPE svg PUBLIC "-//W3C//DTD SVG 1.1//EN"
 "http://www.w3.org/Graphics/SVG/1.1/DTD/svg11.dtd">
<!-- Generated by graphviz version 2.43.0 (0)
 -->
<!-- Title: G Pages: 1 -->
<svg width="290pt" height="211pt"
 viewBox="0.00 0.00 290.19 211.00" xmlns="http://www.w3.org/2000/svg" xmlns:xlink="http://www.w3.org/1999/xlink">
<g id="graph0" class="graph" transform="scale(1 1) rotate(0) translate(4 207)">
<title>G</title>
<polygon fill="white" stroke="transparent" points="-4,4 -4,-207 286.19,-207 286.19,4 -4,4"/>
<text text-anchor="middle" x="141.1" y="-187.8" font-family="Times,serif" font-size="14.00">Activos disponiblesXela </text>
<!-- n1 -->
<g id="node1" class="node">
<title>n1</title>
<polygon fill="none" stroke="black" points="93.6,-180 39.6,-180 39.6,-144 93.6,-144 93.6,-180"/>
<text text-anchor="middle" x="66.6" y="-158.3" font-family="Times,serif" font-size="14.00">U1</text>
</g>
<!-- n89upk54er8102h1 -->
<g id="node2" class="node">
<title>n89upk54er8102h1</title>
<ellipse fill="red" stroke="black" cx="66.6" cy="-90" rx="28.7" ry="18"/>
<text text-anchor="middle" x="66.6" y="-86.3" font-family="Times,serif" font-size="14.00">A21</text>
</g>
<!-- n1&#45;&gt;n89upk54er8102h1 -->
<g id="edge1" class="edge">
<title>n1&#45;&gt;n89upk54er8102h1</title>
<path fill="none" stroke="black" d="M66.6,-143.7C66.6,-135.98 66.6,-126.71 66.6,-118.11"/>
<polygon fill="black" stroke="black" points="70.1,-118.1 66.6,-108.1 63.1,-118.1 70.1,-118.1"/>
</g>
<!-- n3j63483u4eq1686 -->
<g id="node3" class="node">
<title>n3j63483u4eq1686</title>
<ellipse fill="green" stroke="black" cx="28.6" cy="-18" rx="28.7" ry="18"/>
<text text-anchor="middle" x="28.6" y="-14.3" font-family="Times,serif" font-size="14.00">A11</text>
</g>
<!-- n89upk54er8102h1&#45;&gt;n3j63483u4eq1686 -->
<g id="edge2" class="edge">
<title>n89upk54er8102h1&#45;&gt;n3j63483u4eq1686</title>
<path fill="none" stroke="black" d="M57.78,-72.76C53.18,-64.28 47.44,-53.71 42.28,-44.2"/>
<polygon fill="black" stroke="black" points="45.21,-42.27 37.36,-35.15 39.06,-45.61 45.21,-42.27"/>
</g>
<!-- nwhk7blj6bopv6nb -->
<g id="node4" class="node">
<title>nwhk7blj6bopv6nb</title>
<ellipse fill="red" stroke="black" cx="103.6" cy="-18" rx="28.7" ry="18"/>
<text text-anchor="middle" x="103.6" y="-14.3" font-family="Times,serif" font-size="14.00">A31</text>
</g>
<!-- n89upk54er8102h1&#45;&gt;nwhk7blj6bopv6nb -->
<g id="edge3" class="edge">
<title>n89upk54er8102h1&#45;&gt;nwhk7blj6bopv6nb</title>
<path fill="none" stroke="black" d="M75.18,-72.76C79.6,-64.4 85.09,-54.02 90.06,-44.61"/>
<polygon fill="black" stroke="black" points="93.23,-46.11 94.81,-35.63 87.04,-42.84 93.23,-46.11"/>
</g>
<!-- n8 -->
<g id="node5" class="node">
<title>n8</title>
<polygon fill="none" stroke="black" points="242.6,-180 188.6,-180 188.6,-144 242.6,-144 242.6,-180"/>
<text text-anchor="middle" x="215.6" y="-158.3" font-family="Times,serif" font-size="14.00">U4</text>
</g>
<!-- n2c0875gp0a6lwcm -->
<g id="node6" class="node">
<title>n2c0875gp0a6lwcm</title>
<ellipse fill="green" stroke="black" cx="215.6" cy="-90" rx="28.7" ry="18"/>
<text text-anchor="middle" x="215.6" y="-86.3" font-family="Times,serif" font-size="14.00">A34</text>
</g>
<!-- n8&#45;&gt;n2c0875gp0a6lwcm -->
<g id="edge4" class="edge">
<title>n8&#45;&gt;n2c0875gp0a6lwcm</title>
<path fill="none" stroke="black" d="M215.6,-143.7C215.6,-135.98 215.6,-126.71 215.6,-118.11"/>
<polygon fill="black" stroke="black" points="219.1,-118.1 215.6,-108.1 212.1,-118.1 219.1,-118.1"/>
</g>
<!-- n1ybe03pl13j6iw8 -->
<g id="node7" class="node">
<title>n1ybe03pl13j6iw8</title>
<ellipse fill="green" stroke="black" cx="178.6" cy="-18" rx="28.7" ry="18"/>
<text text-anchor="middle" x="178.6" y="-14.3" font-family="Times,serif" font-size="14.00">A14</text>
</g>
<!-- n2c0875gp0a6lwcm&#45;&gt;n1ybe03pl13j6iw8 -->
<g id="edge5" class="edge">
<title>n2c0875gp0a6lwcm&#45;&gt;n1ybe03pl13j6iw8</title>
<path fill="none" stroke="black" d="M207.02,-72.76C202.6,-64.4 197.11,-54.02 192.13,-44.61"/>
<polygon fill="black" stroke="black" points="195.16,-42.84 187.39,-35.63 188.97,-46.11 195.16,-42.84"/>
</g>
<!-- nx6xmps23i627d4b -->
<g id="node8" class="node">
<title>nx6xmps23i627d4b</title>
<ellipse fill="red" stroke="black" cx="253.6" cy="-18" rx="28.7" ry="18"/>
<text text-anchor="middle" x="253.6" y="-14.3" font-family="Times,serif" font-size="14.00">A44</text>
</g>
<!-- n2c0875gp0a6lwcm&#45;&gt;nx6xmps23i627d4b -->
<g id="edge6" class="edge">
<title>n2c0875gp0a6lwcm&#45;&gt;nx6xmps23i627d4b</title>
<path fill="none" stroke="black" d="M224.41,-72.76C229.02,-64.28 234.75,-53.71 239.92,-44.2"/>
<polygon fill="black" stroke="black" points="243.14,-45.61 244.83,-35.15 236.98,-42.27 243.14,-45.61"/>
</g>
</g>
</svg>
