<?xml version="1.0" encoding="UTF-8" standalone="no"?>
<!DOCTYPE svg PUBLIC "-//W3C//DTD SVG 1.1//EN"
 "http://www.w3.org/Graphics/SVG/1.1/DTD/svg11.dtd">
<!-- Generated by graphviz version 2.43.0 (0)
 -->
<!-- Title: G Pages: 1 -->
<svg width="288pt" height="188pt"
 viewBox="0.00 0.00 288.19 188.00" xmlns="http://www.w3.org/2000/svg" xmlns:xlink="http://www.w3.org/1999/xlink">
<g id="graph0" class="graph" transform="scale(1 1) rotate(0) translate(4 184)">
<title>G</title>
<polygon fill="white" stroke="transparent" points="-4,4 -4,-184 284.19,-184 284.19,4 -4,4"/>
<!-- n7 -->
<g id="node1" class="node">
<title>n7</title>
<polygon fill="none" stroke="black" points="92.6,-180 38.6,-180 38.6,-144 92.6,-144 92.6,-180"/>
<text text-anchor="middle" x="65.6" y="-158.3" font-family="Times,serif" font-size="14.00">U3</text>
</g>
<!-- nf4eu8t444267o4w -->
<g id="node2" class="node">
<title>nf4eu8t444267o4w</title>
<ellipse fill="green" stroke="black" cx="65.6" cy="-90" rx="27" ry="18"/>
<text text-anchor="middle" x="65.6" y="-86.3" font-family="Times,serif" font-size="14.00">A5</text>
</g>
<!-- n7&#45;&gt;nf4eu8t444267o4w -->
<g id="edge1" class="edge">
<title>n7&#45;&gt;nf4eu8t444267o4w</title>
<path fill="none" stroke="black" d="M65.6,-143.7C65.6,-135.98 65.6,-126.71 65.6,-118.11"/>
<polygon fill="black" stroke="black" points="69.1,-118.1 65.6,-108.1 62.1,-118.1 69.1,-118.1"/>
</g>
<!-- nf41cxrf1r0613h3 -->
<g id="node3" class="node">
<title>nf41cxrf1r0613h3</title>
<ellipse fill="green" stroke="black" cx="28.6" cy="-18" rx="28.7" ry="18"/>
<text text-anchor="middle" x="28.6" y="-14.3" font-family="Times,serif" font-size="14.00">A10</text>
</g>
<!-- nf4eu8t444267o4w&#45;&gt;nf41cxrf1r0613h3 -->
<g id="edge2" class="edge">
<title>nf4eu8t444267o4w&#45;&gt;nf41cxrf1r0613h3</title>
<path fill="none" stroke="black" d="M57.02,-72.76C52.6,-64.4 47.11,-54.02 42.13,-44.61"/>
<polygon fill="black" stroke="black" points="45.16,-42.84 37.39,-35.63 38.97,-46.11 45.16,-42.84"/>
</g>
<!-- nrxgg5tv7ij8ncn9 -->
<g id="node4" class="node">
<title>nrxgg5tv7ij8ncn9</title>
<ellipse fill="red" stroke="black" cx="102.6" cy="-18" rx="27" ry="18"/>
<text text-anchor="middle" x="102.6" y="-14.3" font-family="Times,serif" font-size="14.00">A4</text>
</g>
<!-- nf4eu8t444267o4w&#45;&gt;nrxgg5tv7ij8ncn9 -->
<g id="edge3" class="edge">
<title>nf4eu8t444267o4w&#45;&gt;nrxgg5tv7ij8ncn9</title>
<path fill="none" stroke="black" d="M74.18,-72.76C78.66,-64.28 84.25,-53.71 89.28,-44.2"/>
<polygon fill="black" stroke="black" points="92.48,-45.62 94.06,-35.15 86.29,-42.35 92.48,-45.62"/>
</g>
<!-- n4 -->
<g id="node5" class="node">
<title>n4</title>
<polygon fill="none" stroke="black" points="240.6,-180 186.6,-180 186.6,-144 240.6,-144 240.6,-180"/>
<text text-anchor="middle" x="213.6" y="-158.3" font-family="Times,serif" font-size="14.00">U2</text>
</g>
<!-- ngvr96758rssy4x4 -->
<g id="node6" class="node">
<title>ngvr96758rssy4x4</title>
<ellipse fill="red" stroke="black" cx="213.6" cy="-90" rx="28.7" ry="18"/>
<text text-anchor="middle" x="213.6" y="-86.3" font-family="Times,serif" font-size="14.00">A11</text>
</g>
<!-- n4&#45;&gt;ngvr96758rssy4x4 -->
<g id="edge4" class="edge">
<title>n4&#45;&gt;ngvr96758rssy4x4</title>
<path fill="none" stroke="black" d="M213.6,-143.7C213.6,-135.98 213.6,-126.71 213.6,-118.11"/>
<polygon fill="black" stroke="black" points="217.1,-118.1 213.6,-108.1 210.1,-118.1 217.1,-118.1"/>
</g>
<!-- n19517j340cg8j0g -->
<g id="node7" class="node">
<title>n19517j340cg8j0g</title>
<ellipse fill="green" stroke="black" cx="176.6" cy="-18" rx="28.7" ry="18"/>
<text text-anchor="middle" x="176.6" y="-14.3" font-family="Times,serif" font-size="14.00">A14</text>
</g>
<!-- ngvr96758rssy4x4&#45;&gt;n19517j340cg8j0g -->
<g id="edge5" class="edge">
<title>ngvr96758rssy4x4&#45;&gt;n19517j340cg8j0g</title>
<path fill="none" stroke="black" d="M205.02,-72.76C200.6,-64.4 195.11,-54.02 190.13,-44.61"/>
<polygon fill="black" stroke="black" points="193.16,-42.84 185.39,-35.63 186.97,-46.11 193.16,-42.84"/>
</g>
<!-- nx7vw3r7z56wi2sj -->
<g id="node8" class="node">
<title>nx7vw3r7z56wi2sj</title>
<ellipse fill="green" stroke="black" cx="251.6" cy="-18" rx="28.7" ry="18"/>
<text text-anchor="middle" x="251.6" y="-14.3" font-family="Times,serif" font-size="14.00">A12</text>
</g>
<!-- ngvr96758rssy4x4&#45;&gt;nx7vw3r7z56wi2sj -->
<g id="edge6" class="edge">
<title>ngvr96758rssy4x4&#45;&gt;nx7vw3r7z56wi2sj</title>
<path fill="none" stroke="black" d="M222.41,-72.76C227.02,-64.28 232.75,-53.71 237.92,-44.2"/>
<polygon fill="black" stroke="black" points="241.14,-45.61 242.83,-35.15 234.98,-42.27 241.14,-45.61"/>
</g>
</g>
</svg>
