<?xml version="1.0" encoding="UTF-8" standalone="no"?>
<!DOCTYPE svg PUBLIC "-//W3C//DTD SVG 1.1//EN"
 "http://www.w3.org/Graphics/SVG/1.1/DTD/svg11.dtd">
<!-- Generated by graphviz version 2.43.0 (0)
 -->
<!-- Title: G Pages: 1 -->
<svg width="365pt" height="211pt"
 viewBox="0.00 0.00 365.19 211.00" xmlns="http://www.w3.org/2000/svg" xmlns:xlink="http://www.w3.org/1999/xlink">
<g id="graph0" class="graph" transform="scale(1 1) rotate(0) translate(4 207)">
<title>G</title>
<polygon fill="white" stroke="transparent" points="-4,4 -4,-207 361.19,-207 361.19,4 -4,4"/>
<text text-anchor="middle" x="178.6" y="-187.8" font-family="Times,serif" font-size="14.00">Activos disponibles Guatemala </text>
<!-- n8 -->
<g id="node1" class="node">
<title>n8</title>
<polygon fill="none" stroke="black" points="55.6,-180 1.6,-180 1.6,-144 55.6,-144 55.6,-180"/>
<text text-anchor="middle" x="28.6" y="-158.3" font-family="Times,serif" font-size="14.00">U4</text>
</g>
<!-- n8c9t8ff9075svj8 -->
<g id="node2" class="node">
<title>n8c9t8ff9075svj8</title>
<ellipse fill="green" stroke="black" cx="28.6" cy="-90" rx="28.7" ry="18"/>
<text text-anchor="middle" x="28.6" y="-86.3" font-family="Times,serif" font-size="14.00">A24</text>
</g>
<!-- n8&#45;&gt;n8c9t8ff9075svj8 -->
<g id="edge1" class="edge">
<title>n8&#45;&gt;n8c9t8ff9075svj8</title>
<path fill="none" stroke="black" d="M28.6,-143.7C28.6,-135.98 28.6,-126.71 28.6,-118.11"/>
<polygon fill="black" stroke="black" points="32.1,-118.1 28.6,-108.1 25.1,-118.1 32.1,-118.1"/>
</g>
<!-- nj6ielcs52c1hx11 -->
<g id="node3" class="node">
<title>nj6ielcs52c1hx11</title>
<ellipse fill="red" stroke="black" cx="28.6" cy="-18" rx="28.7" ry="18"/>
<text text-anchor="middle" x="28.6" y="-14.3" font-family="Times,serif" font-size="14.00">A14</text>
</g>
<!-- n8c9t8ff9075svj8&#45;&gt;nj6ielcs52c1hx11 -->
<g id="edge2" class="edge">
<title>n8c9t8ff9075svj8&#45;&gt;nj6ielcs52c1hx11</title>
<path fill="none" stroke="black" d="M28.6,-71.7C28.6,-63.98 28.6,-54.71 28.6,-46.11"/>
<polygon fill="black" stroke="black" points="32.1,-46.1 28.6,-36.1 25.1,-46.1 32.1,-46.1"/>
</g>
<!-- n7 -->
<g id="node4" class="node">
<title>n7</title>
<polygon fill="none" stroke="black" points="168.6,-180 114.6,-180 114.6,-144 168.6,-144 168.6,-180"/>
<text text-anchor="middle" x="141.6" y="-158.3" font-family="Times,serif" font-size="14.00">U3</text>
</g>
<!-- n79s10km5m194gpk -->
<g id="node5" class="node">
<title>n79s10km5m194gpk</title>
<ellipse fill="green" stroke="black" cx="141.6" cy="-90" rx="28.7" ry="18"/>
<text text-anchor="middle" x="141.6" y="-86.3" font-family="Times,serif" font-size="14.00">A23</text>
</g>
<!-- n7&#45;&gt;n79s10km5m194gpk -->
<g id="edge3" class="edge">
<title>n7&#45;&gt;n79s10km5m194gpk</title>
<path fill="none" stroke="black" d="M141.6,-143.7C141.6,-135.98 141.6,-126.71 141.6,-118.11"/>
<polygon fill="black" stroke="black" points="145.1,-118.1 141.6,-108.1 138.1,-118.1 145.1,-118.1"/>
</g>
<!-- n3i5537u39ghb32j -->
<g id="node6" class="node">
<title>n3i5537u39ghb32j</title>
<ellipse fill="green" stroke="black" cx="103.6" cy="-18" rx="28.7" ry="18"/>
<text text-anchor="middle" x="103.6" y="-14.3" font-family="Times,serif" font-size="14.00">A13</text>
</g>
<!-- n79s10km5m194gpk&#45;&gt;n3i5537u39ghb32j -->
<g id="edge4" class="edge">
<title>n79s10km5m194gpk&#45;&gt;n3i5537u39ghb32j</title>
<path fill="none" stroke="black" d="M132.78,-72.76C128.18,-64.28 122.44,-53.71 117.28,-44.2"/>
<polygon fill="black" stroke="black" points="120.21,-42.27 112.36,-35.15 114.06,-45.61 120.21,-42.27"/>
</g>
<!-- n7l2jlwt743k3351 -->
<g id="node7" class="node">
<title>n7l2jlwt743k3351</title>
<ellipse fill="green" stroke="black" cx="178.6" cy="-18" rx="28.7" ry="18"/>
<text text-anchor="middle" x="178.6" y="-14.3" font-family="Times,serif" font-size="14.00">A33</text>
</g>
<!-- n79s10km5m194gpk&#45;&gt;n7l2jlwt743k3351 -->
<g id="edge5" class="edge">
<title>n79s10km5m194gpk&#45;&gt;n7l2jlwt743k3351</title>
<path fill="none" stroke="black" d="M150.18,-72.76C154.6,-64.4 160.09,-54.02 165.06,-44.61"/>
<polygon fill="black" stroke="black" points="168.23,-46.11 169.81,-35.63 162.04,-42.84 168.23,-46.11"/>
</g>
<!-- n4 -->
<g id="node8" class="node">
<title>n4</title>
<polygon fill="none" stroke="black" points="317.6,-180 263.6,-180 263.6,-144 317.6,-144 317.6,-180"/>
<text text-anchor="middle" x="290.6" y="-158.3" font-family="Times,serif" font-size="14.00">U2</text>
</g>
<!-- ns9gdsb52we12w6f -->
<g id="node9" class="node">
<title>ns9gdsb52we12w6f</title>
<ellipse fill="red" stroke="black" cx="290.6" cy="-90" rx="28.7" ry="18"/>
<text text-anchor="middle" x="290.6" y="-86.3" font-family="Times,serif" font-size="14.00">A32</text>
</g>
<!-- n4&#45;&gt;ns9gdsb52we12w6f -->
<g id="edge6" class="edge">
<title>n4&#45;&gt;ns9gdsb52we12w6f</title>
<path fill="none" stroke="black" d="M290.6,-143.7C290.6,-135.98 290.6,-126.71 290.6,-118.11"/>
<polygon fill="black" stroke="black" points="294.1,-118.1 290.6,-108.1 287.1,-118.1 294.1,-118.1"/>
</g>
<!-- n34u2047095e3yba -->
<g id="node10" class="node">
<title>n34u2047095e3yba</title>
<ellipse fill="green" stroke="black" cx="253.6" cy="-18" rx="28.7" ry="18"/>
<text text-anchor="middle" x="253.6" y="-14.3" font-family="Times,serif" font-size="14.00">A12</text>
</g>
<!-- ns9gdsb52we12w6f&#45;&gt;n34u2047095e3yba -->
<g id="edge7" class="edge">
<title>ns9gdsb52we12w6f&#45;&gt;n34u2047095e3yba</title>
<path fill="none" stroke="black" d="M282.02,-72.76C277.6,-64.4 272.11,-54.02 267.13,-44.61"/>
<polygon fill="black" stroke="black" points="270.16,-42.84 262.39,-35.63 263.97,-46.11 270.16,-42.84"/>
</g>
<!-- nuf4mw118pg8203i -->
<g id="node11" class="node">
<title>nuf4mw118pg8203i</title>
<ellipse fill="green" stroke="black" cx="328.6" cy="-18" rx="28.7" ry="18"/>
<text text-anchor="middle" x="328.6" y="-14.3" font-family="Times,serif" font-size="14.00">A22</text>
</g>
<!-- ns9gdsb52we12w6f&#45;&gt;nuf4mw118pg8203i -->
<g id="edge8" class="edge">
<title>ns9gdsb52we12w6f&#45;&gt;nuf4mw118pg8203i</title>
<path fill="none" stroke="black" d="M299.41,-72.76C304.02,-64.28 309.75,-53.71 314.92,-44.2"/>
<polygon fill="black" stroke="black" points="318.14,-45.61 319.83,-35.15 311.98,-42.27 318.14,-45.61"/>
</g>
</g>
</svg>
